<svg width="290" height="220" viewBox="0 0 290 220" fill="none" xmlns="http://www.w3.org/2000/svg">
<g clip-path="url(#clip0_265_2329)">
<mask id="mask0_265_2329" style="mask-type:luminance" maskUnits="userSpaceOnUse" x="0" y="0" width="289" height="220">
<path d="M288.92 67.1778L41.2324 0.810059L0.443898 153.035L248.132 219.403L288.92 67.1778Z" fill="white"/>
</mask>
<g mask="url(#mask0_265_2329)">
<path d="M208.172 163.824L216.007 177.611C170.846 163.517 124.704 150.635 78.8033 139.304C68.6805 136.913 58.6802 134.027 48.8413 130.658L64.1396 124.935C65.7929 126.782 68.9056 127.98 71.9731 128.802C72.9956 129.076 74.0045 129.347 74.9869 129.497C84.6033 131.401 120.223 140.636 131.23 143.838C156.151 151.119 181.568 157.748 206.903 163.596L208.172 163.824Z" fill="#19305C"/>
<path d="M219.346 178.304C219.371 178.237 219.382 178.164 219.376 178.092C219.37 178.02 219.348 177.95 219.312 177.888L214.874 170.081C214.221 168.932 213.604 167.807 212.99 166.668C212.378 165.53 211.605 164.116 210.835 162.745C211.517 162.304 212.116 161.745 212.604 161.096C214.266 158.616 215.411 155.826 215.968 152.893C219.655 138.64 223.166 125.372 226.548 112.535C229.929 99.6976 233.458 86.4199 237.164 72.0989C239.212 64.1835 236.952 58.7495 230.968 57.1462L230.887 57.1244C227.188 56.1332 223.338 55.2179 219.351 54.2661C219.841 52.7266 220.118 51.1273 220.173 49.5125C219.838 48.9138 218.498 48.3656 215.055 47.3994L214.579 47.2719C213.163 46.8197 211.673 46.6378 210.19 46.7357C209.357 46.9054 208.346 51.55 208.335 51.5907L208.306 51.6993L207.184 51.4276C196.683 49.0065 185.812 46.4426 174.994 43.573C162.048 40.1042 149.114 36.4788 137.711 33.2923C132.208 31.7451 127.041 30.3025 122.275 28.9965C122.501 28.1551 123.468 24.5458 123.149 24.0529C123.002 23.8391 122.582 23.1741 117.551 21.8259C115.021 21.1481 113.405 20.977 112.962 21.3817C112.203 22.8388 111.663 24.3989 111.357 26.0126C100.301 23.0502 92.9573 21.3008 91.1 21.5445C88.79 21.8419 86.718 24.7335 84.9191 30.1415C84.7882 30.63 73.3756 79.9131 63.9768 108.299C62.7618 112.605 62.2904 117.086 62.5827 121.553C56.4018 123.896 50.0213 126.331 43.8855 129.049C43.8151 129.074 43.753 129.118 43.7059 129.176C43.6776 129.236 43.6603 129.301 43.6549 129.366C39.8841 139.216 37.0664 149.403 35.2405 159.79C35.2151 159.91 35.234 160.035 35.2938 160.142C35.3535 160.249 35.4501 160.331 35.5656 160.372C51.9914 166.954 69.3062 171.361 86.0463 175.629C94.9686 177.903 104.208 180.248 113.243 182.917C122.701 185.697 132.433 188.378 142.033 190.95L155.959 194.682L169.557 198.325C185.992 202.86 198.401 205.778 211.056 207.991C211.191 208.015 211.329 207.987 211.442 207.911C211.555 207.835 211.633 207.719 211.661 207.585C213.663 197.687 216.229 187.911 219.346 178.304ZM212.125 167.178C212.735 168.33 213.352 169.455 214.022 170.595L218.345 178.181C218.311 178.279 218.284 178.378 218.265 178.48L216.687 178.057L208.784 163.491C209.006 163.48 209.226 163.457 209.445 163.42C209.614 163.372 209.779 163.314 209.942 163.248C210.647 164.644 211.353 165.982 212.056 167.218L212.125 167.178ZM215.244 177.568C170.201 163.449 124.185 150.566 78.3927 139.299C68.2934 136.924 58.3198 134.043 48.5097 130.667L63.8783 124.605C65.5001 126.493 68.6012 127.702 71.6745 128.526C72.6944 128.799 73.7007 129.069 74.6681 129.211C84.2801 131.089 119.798 140.287 130.771 143.503C155.627 150.773 180.981 157.378 206.259 163.177L207.519 163.427L215.244 177.568ZM210.679 47.7394C211.923 47.7446 213.159 47.929 214.351 48.2869L214.84 48.4182C216.369 48.7472 217.851 49.2663 219.25 49.9634C219.064 51.3598 218.772 52.74 218.378 54.0925L209.377 52.0007C209.402 51.9348 209.42 51.8667 209.431 51.7971C209.69 50.4221 210.08 49.0754 210.597 47.7754L210.679 47.7394ZM113.705 22.25C114.938 22.2782 116.158 22.483 117.333 22.8581C119.025 23.2111 120.665 23.7778 122.215 24.5445C122.033 25.9417 121.737 27.3214 121.328 28.6699L112.435 26.2869C112.709 24.92 113.106 23.5808 113.624 22.286L113.705 22.25ZM64.9395 108.731C74.2737 80.5319 85.5509 31.8088 85.9036 30.4925C88.0723 23.9765 90.158 22.7756 91.2148 22.6371C94.0996 22.2611 113.205 27.5987 137.396 34.357C148.813 37.5471 161.805 41.1735 174.693 44.6413C185.571 47.5563 196.409 50.0821 206.924 52.5068C215.336 54.4555 223.283 56.2938 230.6 58.1963L230.681 58.2182C237.997 60.1785 237.23 67.6083 236.108 71.9613C232.423 86.2009 228.909 99.4822 225.513 112.316C222.118 125.15 218.617 138.435 214.933 152.674C214.409 155.485 213.324 158.162 211.745 160.546C211.128 161.464 210.205 162.134 209.139 162.436C208.227 162.541 207.302 162.457 206.422 162.189C181.211 156.408 155.816 149.792 131.002 142.532C119.948 139.294 84.4404 130.056 74.8039 128.216C68.9598 127.072 65.1137 125.27 63.998 123.124C62.6777 120.546 63.9983 111.591 64.9395 108.731ZM62.7588 122.69C62.831 122.996 62.9372 123.293 63.0755 123.575L63.1688 123.716L46.9713 130.153L45.4611 129.588C51.1524 127.114 57.0314 124.865 62.7452 122.687L62.7588 122.69ZM169.71 197.319L156.112 193.676C142.064 189.911 127.533 186.105 113.416 181.944C104.381 179.276 95.128 176.928 86.2192 174.657C69.6423 170.434 52.5043 166.074 36.3223 159.615C38.1105 149.613 40.8277 139.801 44.4386 130.303L46.8246 131.19L46.9198 131.216C57.1547 134.82 67.578 137.865 78.1436 140.338C124.937 151.844 171.961 165.04 217.94 179.527C215.029 188.52 212.604 197.661 210.674 206.914C198.198 204.633 185.846 201.774 169.71 197.319Z" fill="#19305C"/>
<path d="M69.42 114.394C69.0233 115.484 68.8499 116.643 68.9101 117.802C68.9704 118.96 69.263 120.094 69.7707 121.138C70.3521 122.135 71.2889 122.876 72.3933 123.211C88.2368 127.631 104.163 131.982 120.17 136.261C147.062 143.466 174.08 150.473 200.928 157.185C202.717 157.796 204.637 157.918 206.49 157.538C209.916 156.502 211.367 152.72 212.34 149.146L231.755 77.5574C232.651 74.2104 234.307 68.0335 231.554 64.7586C228.549 61.2847 212.076 57.6876 203.232 55.7114L203.068 55.6676C199.403 54.875 195.819 53.8857 192.358 52.929C188.536 51.9049 184.591 50.8479 180.548 49.9396C171.65 48.1095 163.115 45.7934 154.063 43.3388L148.106 41.7425C142.964 40.3647 137.775 38.7847 132.744 37.262C127.715 35.7392 122.199 34.0717 116.823 32.6456L115.857 32.3869C110.117 30.8489 101.453 28.5271 94.0465 28.1468C89.5305 27.9139 81.0014 67.3631 80.9092 67.7613C76.9099 86.3321 69.4966 114.108 69.42 114.394ZM93.9654 29.2627C101.283 29.6484 109.869 31.9346 115.569 33.4617L116.534 33.7205C121.853 35.1456 127.237 36.763 132.429 38.3295C137.623 39.896 142.649 41.4323 147.817 42.8173L153.776 44.4137C162.848 46.8447 171.458 49.1518 180.315 51.0291C184.348 51.862 188.269 52.9562 192.056 54.0002C195.552 54.9369 199.143 55.8991 202.835 56.7571L202.998 56.8008C211.112 58.5666 227.973 62.2385 230.757 65.4491C233.179 68.2708 231.594 74.1311 230.738 77.2704L211.319 148.873C210.437 152.165 209.124 155.648 206.192 156.525C204.521 156.843 202.796 156.718 201.188 156.161C158.392 145.467 115.155 134.028 72.6531 122.187C71.8116 121.918 71.102 121.343 70.6649 120.575C69.8116 118.719 69.7295 116.599 70.4365 114.681C70.513 114.395 77.961 86.5991 81.9221 68.0619C85.81 50.0153 91.9114 29.1496 93.9654 29.2627Z" fill="#19305C"/>
<path d="M160.344 171.45C158.858 169.788 156.805 168.724 154.581 168.466C152.09 167.975 149.553 167.779 147.02 167.88C146.656 167.212 146.137 166.638 145.507 166.204C144.876 165.769 144.152 165.488 143.392 165.382C142.449 165.304 141.5 165.391 140.59 165.639L140.25 165.707C136.833 166.496 133.285 166.604 129.814 166.025C126.343 165.446 123.018 164.191 120.033 162.334C119.25 161.802 118.509 161.209 117.82 160.56C115.79 158.807 113.267 156.605 110.859 156.535C110.416 156.523 109.974 156.574 109.547 156.687C106.266 154.369 98.1332 151.555 94.5539 154.111C93.7606 154.666 93.1338 155.424 92.7384 156.303C92.3431 157.182 92.1953 158.151 92.3084 159.11C92.4526 160.048 92.7892 160.947 93.2967 161.754C93.8042 162.561 94.472 163.258 95.2599 163.804C96.7184 164.832 98.354 165.587 100.086 166.033C101.609 166.492 103.214 166.612 104.785 166.384C105.315 167.563 106.002 168.668 106.828 169.668C111.419 174.553 117.341 178.02 123.872 179.649C128.492 180.879 133.295 181.273 138.045 180.812C140.487 180.516 142.764 179.456 144.541 177.786C145.58 178.165 146.643 178.508 147.72 178.796C149.546 179.287 151.406 179.641 153.282 179.855C155.018 180.171 156.804 179.984 158.425 179.318C159.104 178.978 159.698 178.497 160.169 177.907C160.64 177.319 160.977 176.636 161.156 175.906C161.335 175.175 161.353 174.414 161.208 173.674C161.062 172.933 160.757 172.231 160.314 171.615L160.344 171.45ZM95.9161 162.827C95.2519 162.357 94.6866 161.762 94.2529 161.078C93.8193 160.394 93.5264 159.633 93.3893 158.838C93.3065 158.067 93.4311 157.288 93.7517 156.583C94.0713 155.877 94.5753 155.269 95.2119 154.819C98.1136 152.717 104.979 154.916 108.372 157.035C107.312 157.56 106.367 158.286 105.593 159.171C105.025 159.869 104.612 160.678 104.379 161.545C104.147 162.413 104.1 163.32 104.243 164.209C104.292 164.568 104.362 164.923 104.455 165.274C101.41 165.451 98.3887 164.581 95.9063 162.81L95.9161 162.827ZM137.996 179.632C121.511 181.148 110.56 172.382 107.715 168.869C106.481 167.516 105.651 165.852 105.319 164.065C105.194 163.319 105.23 162.555 105.425 161.826C105.621 161.096 105.971 160.417 106.453 159.833C106.992 159.166 107.665 158.615 108.428 158.213C109.191 157.811 110.03 157.567 110.895 157.495C111.18 157.501 111.463 157.543 111.738 157.62C113.787 158.457 115.642 159.7 117.191 161.27C117.944 161.963 118.752 162.594 119.609 163.157C125.88 167.015 133.425 168.275 140.594 166.663L140.933 166.595C141.733 166.379 142.566 166.295 143.397 166.348C144.412 166.563 145.321 167.121 145.967 167.926C146.614 168.73 146.957 169.73 146.938 170.752C146.809 175.485 142.151 179.233 137.999 179.619L137.996 179.632ZM157.971 178.231C156.546 178.798 154.984 178.954 153.466 178.68C150.735 178.366 148.048 177.747 145.453 176.835C146.998 175.172 147.883 173.013 147.946 170.75C147.944 170.099 147.824 169.453 147.596 168.841C149.884 168.794 152.172 169.001 154.417 169.46C156.397 169.68 158.228 170.617 159.559 172.09C159.915 172.582 160.16 173.144 160.275 173.737C160.392 174.33 160.377 174.94 160.231 175.525C160.077 176.11 159.795 176.653 159.405 177.119C159.015 177.583 158.528 177.958 157.975 178.217L157.971 178.231Z" fill="#19305C"/>
<path d="M157.495 176.826C156.558 177.379 155.481 177.675 154.376 177.681C153.272 177.688 152.182 177.406 151.219 176.864C151.18 176.841 151.137 176.825 151.092 176.818C151.047 176.811 151.002 176.812 150.957 176.823C150.914 176.833 150.872 176.851 150.836 176.877C150.8 176.903 150.769 176.935 150.746 176.972C150.698 177.048 150.685 177.139 150.707 177.226C150.73 177.313 150.787 177.387 150.866 177.435C151.373 177.731 151.922 177.957 152.492 178.106C153.395 178.346 154.337 178.407 155.259 178.285C156.181 178.163 157.065 177.86 157.858 177.395C157.903 177.377 157.943 177.348 157.976 177.313C158.008 177.277 158.032 177.235 158.047 177.19C158.062 177.144 158.065 177.095 158.059 177.048C158.052 177 158.035 176.955 158.009 176.914C157.982 176.873 157.948 176.837 157.907 176.81C157.866 176.783 157.819 176.765 157.77 176.756C157.722 176.748 157.672 176.75 157.624 176.762C157.576 176.775 157.532 176.796 157.495 176.826Z" fill="#19305C"/>
<path d="M99.6825 163.144C98.7289 162.869 97.8484 162.382 97.0987 161.717C96.349 161.052 95.748 160.223 95.3366 159.286C95.3224 159.238 95.3001 159.194 95.269 159.155C95.2378 159.117 95.2004 159.086 95.1568 159.064C95.1141 159.042 95.0669 159.029 95.0188 159.026C94.9698 159.025 94.9217 159.032 94.8754 159.05C94.782 159.082 94.7036 159.15 94.6564 159.24C94.6092 159.331 94.5968 159.436 94.6226 159.534C95.0686 160.593 95.7338 161.533 96.5698 162.286C97.4059 163.04 98.3942 163.59 99.4653 163.898C99.5605 163.919 99.6612 163.902 99.7466 163.85C99.8321 163.797 99.8962 163.713 99.9265 163.615C99.9523 163.517 99.9416 163.414 99.8962 163.326C99.8508 163.239 99.7742 163.173 99.6825 163.144Z" fill="#19305C"/>
<path d="M124.08 176.943C121.276 176.224 118.565 175.189 116.02 173.865C115.959 173.832 115.905 173.789 115.861 173.739C115.817 173.69 115.784 173.634 115.764 173.575C115.744 173.516 115.737 173.455 115.744 173.396C115.752 173.336 115.772 173.279 115.806 173.228C115.839 173.179 115.883 173.135 115.937 173.1C115.991 173.066 116.053 173.042 116.119 173.03C116.186 173.017 116.256 173.016 116.325 173.027C116.394 173.039 116.461 173.061 116.523 173.094C121.739 175.682 127.483 177.221 133.295 177.589C133.365 177.592 133.435 177.608 133.499 177.635C133.564 177.662 133.624 177.7 133.674 177.746C133.724 177.792 133.763 177.846 133.789 177.904C133.816 177.962 133.83 178.023 133.829 178.084C133.828 178.205 133.772 178.317 133.673 178.396C133.574 178.475 133.44 178.515 133.301 178.508C130.198 178.279 127.105 177.754 124.08 176.943Z" fill="#19305C"/>
<path d="M128.413 174.416C127.734 174.235 127.027 174.046 126.231 173.751C126.178 173.744 126.126 173.73 126.079 173.708C126.031 173.686 125.989 173.658 125.955 173.625C125.922 173.593 125.897 173.556 125.883 173.518C125.87 173.481 125.868 173.443 125.877 173.408C125.887 173.373 125.907 173.342 125.938 173.316C125.968 173.29 126.008 173.271 126.053 173.26C126.099 173.248 126.15 173.245 126.202 173.25C126.254 173.254 126.306 173.268 126.354 173.288C128.314 174.009 130.385 174.454 132.435 174.594C132.481 174.593 132.528 174.6 132.574 174.612C132.62 174.626 132.663 174.645 132.701 174.669C132.739 174.694 132.771 174.723 132.795 174.755C132.819 174.787 132.834 174.821 132.841 174.854C132.857 174.92 132.837 174.984 132.785 175.03C132.735 175.077 132.655 175.104 132.566 175.104C131.182 175.039 129.779 174.806 128.413 174.416Z" fill="#19305C"/>
<path d="M142.435 169.921C142.061 169.739 141.642 169.67 141.231 169.719C140.82 169.768 140.435 169.936 140.126 170.2C139.802 170.444 139.553 170.769 139.404 171.142C139.256 171.514 139.214 171.92 139.283 172.318C139.345 172.756 139.549 173.164 139.865 173.486C140.18 173.808 140.591 174.025 141.037 174.107C141.407 174.168 141.783 174.147 142.14 174.049C142.498 173.951 142.828 173.777 143.105 173.538C143.338 173.275 143.507 172.964 143.6 172.627C143.693 172.29 143.708 171.937 143.644 171.59C143.58 171.245 143.438 170.916 143.229 170.627C143.021 170.338 142.749 170.097 142.435 169.921Z" fill="#19305C"/>
<path d="M110.346 162.999C110.169 163.258 110.057 163.552 110.019 163.861C109.981 164.17 110.017 164.486 110.126 164.789C110.233 165.091 110.411 165.372 110.646 165.612C110.881 165.854 111.167 166.049 111.486 166.184C112.871 166.733 114.872 165.501 114.456 163.278C114.308 162.951 114.076 162.658 113.781 162.424C113.486 162.19 113.137 162.021 112.763 161.932C112.518 161.854 112.262 161.819 112.007 161.83C111.753 161.842 111.507 161.899 111.282 161.997C111.058 162.096 110.86 162.236 110.699 162.408C110.539 162.58 110.419 162.781 110.346 162.999Z" fill="#19305C"/>
<path d="M153.611 172.2C153.322 172.36 153.073 172.587 152.884 172.863C152.695 173.14 152.57 173.458 152.521 173.792C152.479 174.144 152.541 174.498 152.696 174.809C152.852 175.12 153.096 175.372 153.395 175.533C153.683 175.685 154.004 175.761 154.33 175.754C154.656 175.746 154.978 175.657 155.266 175.492C155.509 175.332 155.71 175.113 155.854 174.853C155.996 174.593 156.075 174.303 156.082 174.008C156.221 172.628 154.25 171.859 153.611 172.2Z" fill="#19305C"/>
<path d="M97.5587 159.05C97.5552 159.389 97.6317 159.721 97.7804 160.017C97.9291 160.314 98.1464 160.565 98.4126 160.749C98.6708 160.933 98.9762 161.032 99.2914 161.036C99.6074 161.04 99.9191 160.947 100.191 160.77C100.533 160.511 100.795 160.15 100.941 159.736C101.207 159.067 101.257 158.332 101.085 157.642C100.707 155.982 97.6041 156.386 97.5587 159.05Z" fill="#19305C"/>
<path d="M206.74 200.015C206.695 200.002 206.655 199.974 206.621 199.936C206.588 199.898 206.562 199.848 206.545 199.79C206.527 199.733 206.519 199.668 206.521 199.601C206.523 199.533 206.534 199.465 206.555 199.398C208.303 193.525 209.889 187.536 211.258 181.59C211.27 181.513 211.292 181.439 211.325 181.37C211.358 181.301 211.4 181.241 211.447 181.193C211.495 181.145 211.548 181.11 211.602 181.09C211.655 181.072 211.71 181.068 211.76 181.082C211.81 181.095 211.855 181.125 211.892 181.168C211.929 181.211 211.957 181.268 211.974 181.334C211.991 181.4 211.997 181.473 211.991 181.549C211.986 181.625 211.968 181.7 211.94 181.772C210.56 187.759 208.967 193.775 207.211 199.676C207.164 199.797 207.091 199.899 207.004 199.961C206.917 200.024 206.823 200.043 206.74 200.015Z" fill="#19305C"/>
<path d="M204.425 198.474C204.311 198.443 204.216 198.361 204.161 198.244C204.105 198.127 204.095 197.987 204.13 197.853L205.473 192.843C205.511 192.711 205.591 192.597 205.696 192.524C205.801 192.452 205.924 192.426 206.038 192.453C206.152 192.484 206.248 192.566 206.303 192.683C206.358 192.8 206.369 192.939 206.333 193.074L204.994 198.07C204.957 198.205 204.878 198.323 204.771 198.398C204.665 198.474 204.541 198.501 204.425 198.474Z" fill="#19305C"/>
<path d="M40.6147 156.425C40.5128 156.397 40.4292 156.318 40.3826 156.203C40.336 156.089 40.33 155.949 40.366 155.815L45.2934 137.02C45.3288 136.888 45.4019 136.772 45.4972 136.696C45.5926 136.62 45.7024 136.591 45.8036 136.614C45.9056 136.642 45.989 136.721 46.0357 136.835C46.0823 136.95 46.0883 137.089 46.0523 137.224L41.1249 156.018C41.0895 156.149 41.0163 156.266 40.9211 156.343C40.8258 156.418 40.7158 156.448 40.6147 156.425Z" fill="#19305C"/>
<path d="M43.9929 157.329C43.8824 157.3 43.7901 157.221 43.7355 157.107C43.681 156.995 43.6684 156.858 43.7006 156.726C43.8904 156.018 44.135 155.105 44.3758 154.206C44.6166 153.307 44.8503 152.436 45.0364 151.74C45.0515 151.672 45.0779 151.606 45.1142 151.547C45.1505 151.488 45.1958 151.437 45.2476 151.397C45.2996 151.356 45.3569 151.327 45.4164 151.312C45.4759 151.296 45.5365 151.294 45.5945 151.307C45.7073 151.336 45.8025 151.415 45.861 151.528C45.9195 151.642 45.9369 151.78 45.9097 151.917C45.7163 152.638 45.4754 153.537 45.2309 154.45C44.9864 155.362 44.7564 156.221 44.5703 156.915C44.5554 156.983 44.529 157.049 44.4929 157.107C44.4566 157.164 44.4114 157.215 44.3597 157.254C44.308 157.294 44.2509 157.321 44.1918 157.335C44.1327 157.349 44.0729 157.349 44.0158 157.335L43.9929 157.329Z" fill="#19305C"/>
<path d="M62.3138 165.004C62.1794 164.968 62.0689 164.864 62.0057 164.715C61.9426 164.565 61.9319 164.382 61.9759 164.203C61.9978 164.114 62.0331 164.029 62.0795 163.953C62.1261 163.877 62.1829 163.812 62.2468 163.76C62.3105 163.709 62.38 163.674 62.451 163.656C62.5221 163.638 62.5932 163.638 62.6602 163.657L77.2231 167.155C77.2908 167.171 77.3534 167.204 77.4073 167.253C77.4611 167.302 77.505 167.366 77.5366 167.441C77.5681 167.516 77.5864 167.599 77.5907 167.688C77.5949 167.777 77.5848 167.868 77.5611 167.957C77.5413 168.046 77.5078 168.13 77.4628 168.207C77.4179 168.282 77.3623 168.349 77.2995 168.4C77.2367 168.452 77.168 168.488 77.0976 168.506C77.0273 168.525 76.9567 168.525 76.8902 168.507L62.3138 165.004Z" fill="#19305C"/>
<path d="M170.204 195.757C170.073 195.716 169.966 195.611 169.906 195.463C169.845 195.315 169.835 195.134 169.879 194.959C169.9 194.87 169.936 194.785 169.982 194.709C170.029 194.633 170.086 194.568 170.15 194.516C170.214 194.466 170.283 194.43 170.354 194.412C170.426 194.394 170.497 194.395 170.565 194.413L189.426 199.063C189.56 199.1 189.671 199.203 189.734 199.353C189.798 199.503 189.809 199.687 189.764 199.865C189.743 199.954 189.707 200.039 189.661 200.115C189.614 200.191 189.558 200.256 189.494 200.307C189.43 200.358 189.36 200.394 189.289 200.411C189.218 200.429 189.146 200.429 189.079 200.41L170.217 195.76L170.204 195.757Z" fill="#19305C"/>
<path d="M72.4064 164.943C72.2826 164.895 72.1784 164.82 72.1123 164.732C72.0463 164.645 72.0227 164.548 72.0457 164.462C72.0688 164.377 72.1371 164.305 72.2383 164.262C72.3395 164.219 72.4672 164.206 72.5985 164.226L77.6404 165.424C77.7832 165.459 77.912 165.53 77.9992 165.623C78.0865 165.716 78.1253 165.821 78.1073 165.918C78.0986 165.966 78.0755 166.01 78.0396 166.049C78.0036 166.086 77.9555 166.117 77.8981 166.139C77.8407 166.161 77.775 166.173 77.7052 166.176C77.6353 166.178 77.5627 166.17 77.4914 166.152L72.4494 164.954L72.4064 164.943Z" fill="#19305C"/>
<path d="M175.957 194.527L171.026 193.206C170.945 193.195 170.867 193.17 170.795 193.133C170.724 193.096 170.66 193.047 170.611 192.991C170.562 192.934 170.527 192.871 170.509 192.806C170.491 192.74 170.49 192.674 170.507 192.612C170.524 192.55 170.557 192.493 170.606 192.444C170.654 192.397 170.716 192.36 170.787 192.336C170.858 192.311 170.936 192.3 171.017 192.305C171.098 192.308 171.179 192.326 171.253 192.357L176.184 193.679C176.307 193.729 176.41 193.812 176.473 193.912C176.535 194.012 176.555 194.123 176.527 194.225C176.5 194.327 176.427 194.413 176.323 194.468C176.219 194.523 176.089 194.545 175.957 194.527Z" fill="#19305C"/>
<path d="M136.123 157.127C134.273 156.631 132.436 156.14 130.627 155.655C127.696 154.869 124.692 153.982 121.7 153.263C121.632 153.248 121.566 153.221 121.507 153.185C121.448 153.148 121.399 153.103 121.359 153.051C121.32 153 121.293 152.943 121.28 152.885C121.268 152.827 121.269 152.768 121.284 152.712C121.312 152.602 121.393 152.512 121.507 152.457C121.622 152.404 121.761 152.392 121.895 152.425C124.912 153.162 127.919 154.039 130.863 154.828C133.807 155.617 136.814 156.494 139.803 157.224C139.937 157.26 140.054 157.337 140.13 157.439C140.205 157.541 140.232 157.661 140.207 157.771C140.177 157.88 140.097 157.972 139.983 158.026C139.868 158.079 139.729 158.091 139.594 158.058C138.463 157.742 137.285 157.439 136.123 157.127Z" fill="#19305C"/>
<path d="M128.59 156.953L128.106 156.823C128.037 156.803 127.971 156.775 127.913 156.74C127.854 156.704 127.805 156.662 127.765 156.617C127.727 156.571 127.7 156.522 127.686 156.474C127.673 156.425 127.673 156.377 127.687 156.332C127.723 156.243 127.808 156.173 127.928 156.138C128.048 156.101 128.193 156.101 128.335 156.137C129.412 156.437 130.498 156.701 131.59 156.929C132.745 157.18 133.94 157.449 134.933 157.736C135.012 157.749 135.091 157.773 135.163 157.806C135.235 157.84 135.299 157.883 135.35 157.933C135.4 157.982 135.438 158.036 135.458 158.091C135.479 158.147 135.482 158.202 135.468 158.252C135.455 158.304 135.424 158.35 135.379 158.388C135.334 158.425 135.274 158.454 135.205 158.471C135.137 158.488 135.06 158.494 134.981 158.487C134.901 158.48 134.822 158.462 134.746 158.433C133.673 158.138 132.59 157.878 131.503 157.653C130.498 157.415 129.488 157.194 128.59 156.953Z" fill="#19305C"/>
<path d="M186.854 178.095C185.434 177.715 184.778 177.435 184.534 177.041C183.944 176.122 186.01 169.263 186.028 169.193C186.076 169.057 186.176 168.945 186.307 168.88C186.438 168.816 186.589 168.803 186.731 168.844C186.865 168.892 186.977 168.989 187.042 169.115C187.108 169.241 187.123 169.386 187.082 169.521C186.335 171.81 185.801 174.163 185.487 176.55C187.106 177.139 188.773 177.586 190.469 177.886L191.179 178.076L191.25 178.095C192.121 175.984 192.849 173.817 193.429 171.609C193.47 171.473 193.563 171.357 193.69 171.288C193.816 171.219 193.966 171.201 194.107 171.239C194.177 171.255 194.243 171.286 194.301 171.328C194.359 171.371 194.407 171.425 194.443 171.486C194.48 171.548 194.503 171.615 194.511 171.686C194.52 171.756 194.514 171.827 194.494 171.895C194.475 171.964 192.652 178.769 191.804 179.093C191.517 179.208 191.196 179.217 190.899 179.12L190.19 178.93C188.837 178.582 187.719 178.328 186.854 178.095Z" fill="#19305C"/>
<path d="M187.341 176.382C187.238 176.355 187.149 176.289 187.094 176.2C187.04 176.11 187.024 176.005 187.05 175.906L188 172.046L188.415 172.061L188.786 172.24L187.836 176.101C187.81 176.198 187.747 176.282 187.657 176.335C187.568 176.388 187.462 176.406 187.357 176.387L187.341 176.382Z" fill="#19305C"/>
<path d="M189.697 174.248C189.641 174.232 189.588 174.207 189.542 174.176C189.494 174.145 189.455 174.108 189.425 174.068C189.395 174.027 189.374 173.984 189.365 173.94C189.356 173.896 189.358 173.853 189.372 173.812L189.895 171.858C189.925 171.781 189.993 171.718 190.087 171.685C190.182 171.651 190.295 171.646 190.405 171.673C190.519 171.703 190.62 171.766 190.685 171.846C190.75 171.926 190.774 172.019 190.752 172.101L190.228 174.055C190.201 174.138 190.13 174.204 190.031 174.241C189.933 174.277 189.812 174.279 189.697 174.248Z" fill="#19305C"/>
<path d="M69.3078 146.586C68.6482 146.453 68.0143 146.216 67.4287 145.882C66.7695 145.317 69.0716 137.977 69.0931 137.897C69.144 137.783 69.2327 137.69 69.3432 137.636C69.4537 137.582 69.5789 137.569 69.6964 137.601C69.8139 137.633 69.9161 137.706 69.9846 137.808C70.0533 137.91 70.0838 138.034 70.0708 138.159C69.4756 140.068 68.491 144.055 68.2891 145.121C70.1422 145.719 72.0394 146.17 73.964 146.469C74.1112 145.92 74.2548 145.384 74.402 144.835C74.8436 143.187 75.2997 141.484 75.6945 139.594C75.7368 139.475 75.8191 139.375 75.9267 139.312C76.0341 139.249 76.1597 139.227 76.2803 139.25C76.4009 139.274 76.5086 139.342 76.5839 139.44C76.6591 139.539 76.6968 139.663 76.6902 139.789C76.3237 141.73 75.838 143.439 75.3582 145.177C75.1895 145.807 75.0243 146.423 74.8556 147.053C74.8286 147.16 74.7789 147.26 74.71 147.346C74.6411 147.432 74.5547 147.501 74.457 147.549C74.3284 147.607 74.1875 147.629 74.0489 147.613C72.0149 147.225 70.4289 146.887 69.3078 146.586Z" fill="#19305C"/>
<path d="M72.3727 144.655C72.2832 144.631 72.2068 144.572 72.1593 144.491C72.1119 144.41 72.0972 144.313 72.1184 144.219L72.9123 140.591C72.9212 140.543 72.9397 140.497 72.9667 140.456C72.9937 140.415 73.0287 140.38 73.0693 140.353C73.1099 140.328 73.1553 140.31 73.2026 140.302C73.2499 140.295 73.2981 140.296 73.3441 140.309C73.3909 140.315 73.4358 140.331 73.4757 140.357C73.5156 140.382 73.5496 140.417 73.5754 140.457C73.6012 140.497 73.6182 140.542 73.6252 140.59C73.6322 140.638 73.6292 140.687 73.6162 140.734L72.8184 144.376C72.8077 144.424 72.788 144.469 72.7605 144.509C72.733 144.548 72.6982 144.583 72.6581 144.608C72.6179 144.635 72.5733 144.653 72.5268 144.661C72.4802 144.67 72.4326 144.669 72.3865 144.658L72.3727 144.655Z" fill="#19305C"/>
<path d="M71.8902 142.682C71.7865 142.654 71.694 142.6 71.6311 142.53C71.5683 142.458 71.5398 142.377 71.5514 142.301C71.6181 141.953 71.7097 141.611 71.8259 141.276C71.9369 140.961 72.0232 140.639 72.0848 140.31C72.0906 140.27 72.1073 140.233 72.1338 140.2C72.1604 140.168 72.1962 140.141 72.2392 140.12C72.2824 140.101 72.3319 140.088 72.385 140.083C72.4381 140.078 72.4936 140.082 72.5486 140.094C72.6577 140.119 72.7568 140.174 72.8258 140.246C72.8948 140.318 72.9286 140.403 72.9204 140.484C72.8536 140.832 72.7619 141.174 72.6457 141.508C72.5348 141.824 72.4484 142.146 72.3869 142.474C72.3811 142.515 72.3643 142.552 72.3378 142.584C72.3113 142.617 72.2755 142.644 72.2324 142.664C72.1893 142.684 72.1397 142.697 72.0866 142.701C72.0336 142.706 71.978 142.702 71.9231 142.691L71.8902 142.682Z" fill="#19305C"/>
<path d="M85.4927 70.7414C85.3444 70.7019 85.2153 70.6137 85.1319 70.495C85.0484 70.3763 85.017 70.2362 85.0442 70.1037L90.4224 47.7215C90.4357 47.6547 90.4642 47.592 90.5061 47.5372C90.5488 47.4823 90.6031 47.4365 90.6672 47.4025C90.7313 47.3685 90.8035 47.3471 90.8791 47.3395C90.9539 47.3319 91.0314 47.3383 91.1062 47.3584C91.1819 47.3749 91.2549 47.4048 91.3199 47.4463C91.3849 47.4878 91.4401 47.5399 91.4837 47.5998C91.5264 47.6596 91.5567 47.7259 91.5709 47.7947C91.5861 47.8635 91.5861 47.9334 91.5701 48.0002L86.1919 70.3824C86.1784 70.4491 86.1498 70.5119 86.1076 70.5667C86.0654 70.6216 86.0105 70.6674 85.9465 70.7014C85.8825 70.7354 85.8105 70.7568 85.7351 70.7644C85.6597 70.772 85.5823 70.7656 85.5079 70.7454L85.4927 70.7414Z" fill="#19305C"/>
<path d="M87.3431 74.0025C87.1903 73.9622 87.055 73.8768 86.9636 73.7626C86.8722 73.6486 86.8313 73.5138 86.8486 73.3847C87.4942 68.6742 88.6426 64.063 90.28 59.6054C90.3316 59.4803 90.4403 59.3815 90.5827 59.3296C90.7261 59.2776 90.8935 59.2765 91.0502 59.3264C91.1285 59.351 91.2024 59.3885 91.2656 59.4366C91.3298 59.4847 91.3823 59.5424 91.4206 59.6062C91.4589 59.6699 91.482 59.7383 91.4882 59.8072C91.4945 59.8761 91.4847 59.944 91.458 60.0066C89.8571 64.413 88.7301 68.967 88.089 73.6172C88.068 73.751 87.9854 73.8677 87.8584 73.9427C87.7315 74.0178 87.5701 74.0454 87.408 74.0198L87.3431 74.0025Z" fill="#19305C"/>
<path d="M217.405 113.461C217.321 113.441 217.24 113.407 217.168 113.361C217.096 113.316 217.034 113.261 216.986 113.197C216.939 113.135 216.905 113.067 216.889 112.996C216.873 112.927 216.874 112.856 216.892 112.79C217.614 110.095 218.453 107.303 219.253 104.659C221.022 99.2374 222.413 93.7064 223.419 88.0887C223.418 88.0117 223.437 87.9374 223.475 87.8707C223.513 87.804 223.569 87.7466 223.641 87.7023C223.711 87.658 223.795 87.6278 223.886 87.6138C223.976 87.5999 224.072 87.6024 224.165 87.6214C224.26 87.6403 224.349 87.6751 224.43 87.7234C224.511 87.7718 224.579 87.8326 224.632 87.9017C224.684 87.9708 224.719 88.0466 224.734 88.1239C224.748 88.2013 224.743 88.2784 224.718 88.3501C223.701 94.0029 222.301 99.5704 220.523 105.027C219.801 107.722 218.908 110.371 218.187 113.064C218.152 113.197 218.051 113.305 217.908 113.367C217.764 113.429 217.591 113.439 217.423 113.394L217.405 113.461Z" fill="#19305C"/>
<path d="M212.894 118.705C212.836 118.69 212.784 118.661 212.737 118.621C212.691 118.58 212.654 118.53 212.626 118.471C212.599 118.412 212.583 118.347 212.579 118.28C212.574 118.211 212.582 118.142 212.602 118.076C213.204 115.829 213.751 113.787 214.303 111.73C214.853 109.673 215.39 107.671 216.017 105.33C216.055 105.199 216.135 105.086 216.24 105.014C216.345 104.943 216.467 104.918 216.581 104.945C216.695 104.979 216.789 105.064 216.845 105.181C216.899 105.299 216.91 105.44 216.873 105.574C216.268 107.834 215.713 109.904 215.162 111.961C214.611 114.017 214.075 116.02 213.459 118.32C213.423 118.452 213.343 118.567 213.238 118.64C213.132 118.712 213.008 118.735 212.894 118.705Z" fill="#19305C"/>
<path d="M257.54 97.469C257.421 97.4379 257.314 97.372 257.231 97.2776C257.147 97.1823 257.089 97.0639 257.063 96.933C257.029 96.7389 257.065 96.5341 257.164 96.3605C257.263 96.1878 257.417 96.0605 257.594 96.0044C258.415 95.7631 259.247 95.5761 260.083 95.4443C260.276 95.4248 260.463 95.4897 260.603 95.6251C260.744 95.7604 260.827 95.9545 260.834 96.1646C260.841 96.3757 260.772 96.5849 260.642 96.7478C260.511 96.9108 260.329 97.0132 260.137 97.0328C259.37 97.1405 258.609 97.3105 257.859 97.5394C257.748 97.5438 257.639 97.5198 257.54 97.469Z" fill="#19305C"/>
<path d="M235.369 108.135C235.242 108.105 235.124 108.04 235.031 107.95C234.939 107.859 234.873 107.745 234.844 107.621C234.813 107.496 234.82 107.367 234.862 107.248C234.904 107.129 234.981 107.024 235.082 106.945C240.561 102.543 246.958 99.3327 253.853 97.5243C253.944 97.4985 254.038 97.4905 254.132 97.5012C254.227 97.5119 254.318 97.5404 254.401 97.5858C254.484 97.6303 254.557 97.6908 254.617 97.7629C254.676 97.836 254.72 97.9188 254.747 98.0069C254.773 98.0951 254.781 98.1877 254.77 98.2785C254.759 98.3693 254.73 98.4574 254.684 98.5367C254.637 98.615 254.575 98.6845 254.5 98.7397C254.426 98.7949 254.341 98.835 254.249 98.8572C247.551 100.609 241.338 103.728 236.022 108.01C235.934 108.083 235.827 108.132 235.713 108.154C235.599 108.176 235.481 108.169 235.369 108.135Z" fill="#19305C"/>
<path d="M271.876 128.057L271.794 128.035C270.881 127.648 270.708 127.586 269.8 127.231C269.714 127.2 269.634 127.15 269.567 127.084C269.5 127.019 269.447 126.939 269.409 126.849C269.373 126.76 269.353 126.662 269.352 126.563C269.35 126.463 269.368 126.363 269.404 126.27C269.434 126.174 269.483 126.085 269.546 126.008C269.61 125.932 269.687 125.87 269.772 125.826C269.858 125.782 269.95 125.757 270.043 125.752C270.137 125.748 270.229 125.765 270.315 125.8C271.254 126.148 271.436 126.228 272.363 126.62C272.532 126.696 272.663 126.841 272.731 127.025C272.799 127.208 272.796 127.415 272.725 127.603C272.652 127.773 272.526 127.912 272.371 127.994C272.216 128.077 272.04 128.099 271.876 128.057Z" fill="#19305C"/>
<path d="M235.581 121.097C235.413 121.051 235.267 120.95 235.169 120.81C235.071 120.671 235.028 120.503 235.047 120.337C235.067 120.173 235.148 120.02 235.275 119.91C235.403 119.8 235.567 119.738 235.74 119.736C245.53 119.735 255.284 121.324 264.593 124.437C264.681 124.466 264.763 124.511 264.834 124.571C264.905 124.63 264.963 124.702 265.005 124.782C265.047 124.863 265.073 124.95 265.08 125.039C265.088 125.128 265.078 125.218 265.049 125.303C264.986 125.469 264.859 125.606 264.694 125.684C264.529 125.761 264.339 125.777 264.16 125.724C255.002 122.651 245.401 121.09 235.769 121.105L235.581 121.097Z" fill="#19305C"/>
<path d="M249.705 155.3C249.588 155.27 249.478 155.215 249.385 155.139C249.292 155.063 249.217 154.969 249.168 154.862C248.817 154.181 248.809 154.146 248.438 153.476C248.367 153.295 248.367 153.097 248.438 152.92C248.508 152.743 248.644 152.599 248.82 152.512C248.997 152.426 249.201 152.405 249.397 152.453C249.592 152.5 249.765 152.613 249.883 152.77C250.279 153.48 250.29 153.5 250.65 154.216C250.744 154.409 250.756 154.627 250.684 154.824C250.612 155.02 250.461 155.181 250.264 155.271C250.087 155.337 249.891 155.347 249.705 155.3Z" fill="#19305C"/>
<path d="M246.727 149.893C246.545 149.844 246.391 149.725 246.298 149.563C242.591 142.997 237.372 137.399 231.071 133.232C230.942 133.122 230.858 132.969 230.835 132.801C230.811 132.633 230.851 132.463 230.944 132.322C231.039 132.183 231.182 132.081 231.346 132.038C231.511 131.997 231.685 132.015 231.837 132.093C238.302 136.378 243.656 142.129 247.46 148.873C247.506 148.952 247.536 149.039 247.549 149.13C247.56 149.22 247.555 149.312 247.531 149.401C247.508 149.489 247.467 149.571 247.411 149.644C247.355 149.716 247.285 149.776 247.206 149.821C247.061 149.903 246.89 149.928 246.727 149.893Z" fill="#19305C"/>
<path d="M49.8433 51.9713C49.73 51.9397 49.6267 51.879 49.5415 51.794C49.0129 51.223 48.4431 50.6991 47.8369 50.227C47.6858 50.117 47.5835 49.9442 47.5521 49.7461C47.5208 49.548 47.5629 49.3406 47.6694 49.1684C47.7235 49.0823 47.7922 49.0077 47.8717 48.9493C47.9511 48.8909 48.0396 48.8497 48.132 48.8281C48.2244 48.8064 48.319 48.8048 48.4101 48.8233C48.5012 48.8419 48.5872 48.8801 48.663 48.9359C49.3334 49.4499 49.9634 50.0221 50.5472 50.6475C50.6771 50.7874 50.7495 50.9796 50.7491 51.1836C50.7487 51.3877 50.6757 51.5876 50.5453 51.7411C50.4558 51.8452 50.3429 51.9218 50.219 51.9625C50.0952 52.0031 49.9652 52.0061 49.8433 51.9713Z" fill="#19305C"/>
<path d="M64.5893 72.5144C64.4771 72.486 64.3732 72.4317 64.2868 72.356C64.2004 72.2804 64.1343 72.1857 64.094 72.0804C61.6131 65.7297 57.7924 59.9266 52.8784 55.0457C52.7441 54.9113 52.6686 54.7322 52.668 54.5471C52.6674 54.362 52.7419 54.1854 52.8753 54.0551C53.0136 53.9311 53.1967 53.8638 53.3871 53.8668C53.5776 53.8698 53.7611 53.943 53.9001 54.0715C58.9528 59.0919 62.8867 65.0562 65.4503 71.5831C65.4995 71.7025 65.5133 71.8322 65.49 71.9574C65.4667 72.0826 65.4073 72.1983 65.3186 72.2912C65.23 72.3841 65.1156 72.4505 64.9885 72.4829C64.8614 72.5152 64.7268 72.5122 64.6 72.4742L64.5893 72.5144Z" fill="#19305C"/>
<path d="M23.133 71.5444C22.9307 71.5034 22.7538 71.3815 22.6411 71.2055C22.5285 71.0295 22.4892 70.814 22.5321 70.6062C22.5749 70.3983 22.6965 70.2153 22.8698 70.0974C23.0432 69.9795 23.2542 69.9362 23.4564 69.9773L23.7115 70.0457L25.1224 70.2418L25.4075 70.3182C25.5099 70.3318 25.6082 70.3668 25.6965 70.4209C25.7848 70.4749 25.8611 70.5469 25.9209 70.6325C25.9807 70.7182 26.0227 70.8157 26.0443 70.919C26.066 71.0223 26.0668 71.1294 26.0467 71.2337C26.0093 71.4404 25.8939 71.6249 25.7257 71.747C25.5575 71.8691 25.35 71.919 25.1483 71.886L24.8632 71.8096L23.5014 71.61L23.2464 71.5417L23.133 71.5444Z" fill="#19305C"/>
<path d="M57.0809 83.4074L56.9057 83.3605C48.3242 78.3374 38.9193 74.825 29.1278 72.9862C28.9453 72.9522 28.7832 72.8492 28.677 72.6998C28.5708 72.5503 28.5292 72.3667 28.5614 72.1894C28.5936 72.0121 28.697 71.8555 28.8487 71.7541C29.0004 71.6527 29.1881 71.6149 29.3706 71.6489C39.3252 73.5028 48.8897 77.0581 57.6202 82.1494C57.7672 82.2366 57.8778 82.372 57.9316 82.531C57.9855 82.6898 57.9791 82.8615 57.9135 83.0144C57.848 83.1674 57.7276 83.2913 57.5748 83.3635C57.4218 83.4357 57.2464 83.4513 57.0809 83.4074Z" fill="#19305C"/>
<path d="M28.573 106.188C28.3924 106.136 28.2343 106.027 28.1253 105.88C28.0632 105.798 28.0186 105.706 27.994 105.608C27.9695 105.511 27.9656 105.41 27.9824 105.312C27.9993 105.215 28.0367 105.122 28.0925 105.04C28.1481 104.957 28.2209 104.886 28.3067 104.832C28.9502 104.409 29.0936 104.306 29.7602 103.921C29.9343 103.847 30.1325 103.835 30.3182 103.89C30.5038 103.945 30.6645 104.06 30.7702 104.217C30.8758 104.373 30.9196 104.559 30.893 104.741C30.8666 104.921 30.7718 105.086 30.6263 105.203C29.9906 105.596 29.855 105.669 29.2464 106.086C29.1505 106.149 29.0403 106.192 28.9238 106.209C28.8073 106.227 28.6875 106.22 28.573 106.188Z" fill="#19305C"/>
<path d="M33.0807 102.786C32.9014 102.737 32.7466 102.624 32.6467 102.471C32.5984 102.393 32.5666 102.306 32.5532 102.216C32.5398 102.125 32.5449 102.034 32.5683 101.947C32.5918 101.859 32.633 101.778 32.6897 101.706C32.7464 101.634 32.8175 101.576 32.8988 101.531C39.7438 97.6499 47.4868 95.4222 55.4829 95.0322C55.5818 95.0153 55.6837 95.0189 55.782 95.0429C55.8802 95.0669 55.9725 95.1106 56.0528 95.1711C56.1331 95.2308 56.1995 95.3073 56.2478 95.3928C56.2961 95.4792 56.3251 95.5744 56.3327 95.6715C56.3405 95.7685 56.3269 95.8656 56.2927 95.9564C56.2585 96.0472 56.2046 96.1291 56.1346 96.1977C56.0646 96.2663 55.98 96.3188 55.8864 96.3535C55.7927 96.3873 55.6923 96.4016 55.5915 96.3963C47.821 96.7836 40.2978 98.9525 33.6454 102.725C33.5613 102.771 33.4679 102.801 33.3708 102.811C33.2739 102.822 33.1752 102.813 33.0807 102.786Z" fill="#19305C"/>
</g>
</g>
<defs>
<clipPath id="clip0_265_2329">
<rect width="289.09" height="219.03" fill="white" transform="translate(0.27002 0.810059)"/>
</clipPath>
</defs>
</svg>
