<svg width="25" height="18" viewBox="0 0 25 18" fill="none" xmlns="http://www.w3.org/2000/svg">
<g clip-path="url(#clip0_204_1598)">
<path d="M8.46206 0.7146L9.81919 3.28603C7.77157 3.80984 6.17633 4.66697 5.03348 5.85745C3.93824 7.00031 3.39062 8.38126 3.39062 10.0003C3.39062 11.2384 3.60491 12.1193 4.03348 12.6431C4.27157 11.9765 4.67634 11.4289 5.24777 11.0003C5.8192 10.5241 6.48587 10.286 7.24777 10.286C8.20015 10.286 9.03348 10.6194 9.74776 11.286C10.462 11.905 10.8192 12.7622 10.8192 13.8574C10.8192 14.905 10.4382 15.7384 9.67634 16.3574C8.91444 16.9765 8.00968 17.3336 6.96206 17.4289C5.15254 17.5717 3.60492 16.9527 2.3192 15.5717C1.03348 14.1431 0.390625 12.2622 0.390625 9.92889C0.390625 7.59556 1.12872 5.66698 2.60491 4.14317C4.0811 2.61936 6.03349 1.4765 8.46206 0.7146ZM22.1049 0.7146L23.3906 3.28603C21.3906 3.80984 19.8192 4.66697 18.6763 5.85745C17.5811 7.00031 17.0335 8.38126 17.0335 10.0003C17.0335 11.2384 17.2239 12.1193 17.6049 12.6431C17.843 11.9765 18.2477 11.4289 18.8192 11.0003C19.4382 10.5241 20.1049 10.286 20.8192 10.286C21.8192 10.286 22.6525 10.6194 23.3192 11.286C24.0335 11.905 24.3906 12.7622 24.3906 13.8574C24.3906 14.905 24.0096 15.7384 23.2477 16.3574C22.5335 16.9765 21.6287 17.3336 20.5335 17.4289C18.7716 17.5717 17.2477 16.9527 15.962 15.5717C14.6763 14.1431 14.0335 12.2622 14.0335 9.92889C14.0335 7.59556 14.7477 5.66698 16.1763 4.14317C17.6525 2.61936 19.6287 1.4765 22.1049 0.7146Z" fill="#FFCAD4"/>
</g>
<defs>
<clipPath id="clip0_204_1598">
<rect width="24" height="17" fill="white" transform="translate(0.390625 0.703125)"/>
</clipPath>
</defs>
</svg>
