<svg width="22" height="17" viewBox="0 0 22 17" fill="none" xmlns="http://www.w3.org/2000/svg">
<g clip-path="url(#clip0_34_1330)">
<path d="M9.1144 1.87373L5.09963 9.50508L3.09226 10.0181C3.3081 9.54783 3.56712 9.16302 3.86931 8.86379C4.21466 8.56451 4.60319 8.41488 5.03488 8.41488C5.94143 8.41488 6.76165 8.77827 7.49553 9.50508C8.27258 10.2319 8.66109 11.1724 8.66109 12.3268C8.66109 13.481 8.2294 14.5071 7.36602 15.4049C6.5458 16.2599 5.55291 16.6875 4.38734 16.6875C3.22177 16.6875 2.2073 16.2599 1.3439 15.4049C0.480521 14.5499 0.0488281 13.5239 0.0488281 12.3268C0.0488281 11.8137 0.156751 11.2366 0.372597 10.5953C0.588444 9.91122 0.955385 9.05619 1.47341 8.0301L5.81192 0.078125L9.1144 1.87373ZM21.0291 1.87373L17.0143 9.50508L15.007 10.0181C15.2228 9.54783 15.4818 9.16302 15.784 8.86379C16.1294 8.56451 16.5179 8.41488 16.9496 8.41488C17.8562 8.41488 18.6763 8.77827 19.4102 9.50508C20.1873 10.2319 20.5758 11.1724 20.5758 12.3268C20.5758 13.481 20.1442 14.5071 19.2807 15.4049C18.4605 16.2599 17.4676 16.6875 16.3021 16.6875C15.1365 16.6875 14.122 16.2599 13.2586 15.4049C12.3953 14.5499 11.9635 13.5239 11.9635 12.3268C11.9635 11.8137 12.0715 11.2366 12.2873 10.5953C12.5031 9.91122 12.8701 9.05619 13.3882 8.0301L17.7266 0.078125L21.0291 1.87373Z" fill="#19305C"/>
</g>
<defs>
<clipPath id="clip0_34_1330">
<rect width="20.9803" height="16.6094" fill="white" transform="translate(0.0488281 0.078125)"/>
</clipPath>
</defs>
</svg>
