<svg width="129" height="130" viewBox="0 0 129 130" fill="none" xmlns="http://www.w3.org/2000/svg">
<g clip-path="url(#clip0_265_2267)">
<mask id="mask0_265_2267" style="mask-type:luminance" maskUnits="userSpaceOnUse" x="0" y="1" width="129" height="129">
<path d="M128.44 1.67798H0.439941V129.678H128.44V1.67798Z" fill="white"/>
</mask>
<g mask="url(#mask0_265_2267)">
<path d="M64.4399 1.67798C99.7862 1.67798 128.44 30.3318 128.44 65.678C128.44 93.3838 110.835 116.977 86.2016 125.883C85.3524 126.19 83.7469 125.305 82.8814 125.577C76.8234 127.478 70.8966 128.449 64.2112 128.449C62.7602 128.449 61.5494 129.63 60.1227 129.535C57.6347 129.369 55.1854 129.061 52.7832 128.619C51.6924 128.418 50.6114 126.556 49.5409 126.3C42.7211 124.674 36.8296 121.829 31.0516 118.215C30.3689 117.788 29.1899 119.11 28.5246 118.658C11.5749 107.145 0.439941 87.712 0.439941 65.678C0.439941 30.3318 29.0937 1.67798 64.4399 1.67798Z" fill="#FFE5D9"/>
<path d="M65.7803 7.93604C95.5346 7.93604 119.655 32.0567 119.655 61.811C119.655 91.5652 95.5346 115.686 65.7803 115.686C36.0261 115.686 11.9053 91.5652 11.9053 61.811C11.9053 32.0567 36.0258 7.93604 65.7803 7.93604Z" fill="#FFF2EC"/>
<path d="M52.6781 88.5726C52.5688 88.6494 52.4596 88.7246 52.3501 88.7984C48.8488 91.1564 45.1936 85.9599 48.5963 83.4619C48.7028 83.3836 48.8106 83.3061 48.9198 83.2294C52.4118 80.7729 56.1466 79.8404 58.0838 80.7769C58.3103 82.9166 56.1703 86.1164 52.6781 88.5726ZM107.884 29.7014C109.821 30.6379 113.556 29.7054 117.048 27.2489C117.157 27.1721 117.265 27.0946 117.372 27.0164C120.774 24.5181 117.119 19.3216 113.618 21.6799C113.508 21.7536 113.399 21.8289 113.29 21.9056C109.798 24.3621 107.658 27.5616 107.884 29.7014Z" fill="#9D8189"/>
<path d="M97.3783 47.5793C103.066 53.2673 105.779 60.8038 105.517 68.2553C98.0658 68.5175 90.529 65.8048 84.841 60.1165C81.5363 56.8118 79.236 52.883 77.9398 48.7095C76.6438 52.883 74.3433 56.8118 71.0385 60.1165C65.3505 65.8045 57.814 68.5175 50.3625 68.2553C50.1003 60.804 52.813 53.2675 58.5013 47.5793C61.806 44.2745 65.7348 41.9743 69.9083 40.678C65.7348 39.3818 61.806 37.0815 58.5013 33.7768C52.8133 28.0888 50.1003 20.5523 50.3625 13.1008C57.8138 12.8385 65.3503 15.5513 71.0385 21.2395C74.3433 24.5443 76.6435 28.473 77.9398 32.6465C79.236 28.473 81.5363 24.5443 84.841 21.2395C90.529 15.5515 98.0656 12.8385 105.517 13.1008C105.779 20.552 103.066 28.0888 97.3783 33.7768C94.0736 37.0815 90.1448 39.3818 85.9713 40.678C90.1448 41.9743 94.0736 44.2745 97.3783 47.5793Z" fill="#FFB4C2"/>
<path d="M95.0584 14.7375C98.4261 13.522 101.981 12.9765 105.517 13.101C105.642 16.637 105.096 20.1921 103.881 23.5598C102.368 27.7501 96.9686 28.7773 93.9019 25.5458C93.7676 25.4043 93.6311 25.2643 93.4926 25.1256C93.3539 24.9868 93.2139 24.8503 93.0724 24.7163C89.8409 21.6496 90.8679 16.2498 95.0584 14.7375ZM62.8074 56.6401C62.6659 56.5058 62.5259 56.3693 62.3871 56.2308C62.2484 56.0921 62.1121 55.9521 61.9779 55.8106C58.9111 52.5791 53.5116 53.6063 51.9991 57.7966C50.7836 61.1643 50.2381 64.7193 50.3626 68.2553C53.8986 68.3798 57.4536 67.8343 60.8214 66.6188C65.0119 65.1063 66.0389 59.7066 62.8074 56.6401ZM60.8214 14.7373C57.4539 13.5218 53.8986 12.9763 50.3626 13.1008C50.2381 16.6368 50.7836 20.1918 51.9991 23.5596C53.5116 27.7498 58.9111 28.7771 61.9779 25.5456C62.1121 25.4043 62.2486 25.2641 62.3871 25.1253C62.5259 24.9866 62.6659 24.8501 62.8074 24.7161C66.0389 21.6496 65.0119 16.2498 60.8214 14.7373ZM93.9019 55.8103C93.7676 55.9518 93.6311 56.0918 93.4926 56.2306C93.3539 56.3693 93.2139 56.5058 93.0724 56.6398C89.8409 59.7066 90.8681 65.1061 95.0584 66.6186C98.4261 67.8341 101.981 68.3796 105.517 68.2551C105.642 64.7191 105.096 61.1641 103.881 57.7963C102.368 53.6061 96.9684 52.5791 93.9019 55.8103Z" fill="#FFCAD4"/>
<path d="M116.94 40.678C111.857 46.1323 104.609 49.5433 96.5649 49.5433C91.8911 49.5433 87.4867 48.3918 83.6192 46.3573C85.6537 50.225 86.8051 54.6295 86.8051 59.3033C86.8051 67.3473 83.3944 74.5948 77.9399 79.6783C72.4856 74.5948 69.0747 67.3473 69.0747 59.3033C69.0747 54.6295 70.2261 50.225 72.2606 46.3573C68.3931 48.3918 63.9884 49.5433 59.3149 49.5433C51.2709 49.5433 44.0234 46.1325 38.9399 40.678C44.0234 35.2238 51.2709 31.8128 59.3149 31.8128C63.9886 31.8128 68.3931 32.9643 72.2606 34.9988C70.2261 31.1313 69.0747 26.7265 69.0747 22.053C69.0747 14.0088 72.4854 6.76148 77.9399 1.67798C83.3942 6.76148 86.8051 14.0088 86.8051 22.053C86.8051 26.7265 85.6537 31.1313 83.6192 34.9988C87.4867 32.9643 91.8914 31.8128 96.5649 31.8128C104.609 31.8128 111.857 35.2238 116.94 40.678Z" fill="#FBC1CC"/>
<path d="M84.1782 10.2305C86.0717 14.263 82.9799 18.8075 78.5266 18.691C78.3316 18.6858 78.1362 18.6833 77.9402 18.6833C77.7442 18.6833 77.5484 18.6858 77.3536 18.691C72.9002 18.8078 69.8084 14.2633 71.7019 10.2307C73.2237 6.98998 75.3517 4.09023 77.9399 1.67798C80.5281 4.09023 82.6564 6.98998 84.1782 10.2305ZM47.4926 34.4398C44.2519 35.9615 41.3522 38.0898 38.9399 40.678C41.3522 43.2663 44.2516 45.3943 47.4926 46.9163C51.5251 48.8098 56.0697 45.718 55.9529 41.2645C55.9476 41.0695 55.9451 40.874 55.9451 40.678C55.9451 40.482 55.9476 40.2863 55.9529 40.0915C56.0694 35.638 51.5251 32.5463 47.4926 34.4398ZM108.387 34.4398C104.355 32.5463 99.8102 35.638 99.9269 40.0915C99.9321 40.2865 99.9347 40.482 99.9347 40.678C99.9347 40.874 99.9321 41.0698 99.9269 41.2645C99.8104 45.718 104.355 48.8098 108.387 46.9163C111.628 45.3945 114.528 43.2663 116.94 40.678C114.528 38.0898 111.628 35.9615 108.387 34.4398ZM78.5264 62.665C78.3314 62.6703 78.1359 62.6728 77.9399 62.6728C77.7439 62.6728 77.5481 62.6703 77.3534 62.665C72.8999 62.5485 69.8082 67.0928 71.7019 71.1253C73.2237 74.366 75.3519 77.2658 77.9402 79.678C80.5284 77.2658 82.6567 74.366 84.1784 71.1253C86.0717 67.0928 82.9799 62.5485 78.5264 62.665Z" fill="#FFCAD4"/>
<path d="M97.3783 47.5791C97.976 48.1769 98.5408 48.7951 99.073 49.4316C98.2468 49.5054 97.4103 49.5431 96.5651 49.5431C91.8913 49.5431 87.4868 48.3916 83.6193 46.3569C85.6538 50.2246 86.8053 54.6291 86.8053 59.3029C86.8053 60.1481 86.7676 60.9849 86.6938 61.8109C86.0576 61.2789 85.4393 60.7141 84.8416 60.1164C81.5368 56.8116 79.2366 52.8829 77.9403 48.7094C76.6441 52.8829 74.3438 56.8116 71.0391 60.1164C70.4413 60.7141 69.8231 61.2789 69.1868 61.8109C69.1131 60.9846 69.0753 60.1481 69.0753 59.3029C69.0753 54.6294 70.2268 50.2246 72.2613 46.3569C68.3938 48.3914 63.9891 49.5431 59.3156 49.5431C58.4701 49.5431 57.6336 49.5054 56.8076 49.4316C57.3396 48.7954 57.9043 48.1769 58.5023 47.5791C61.8071 44.2744 65.7358 41.9741 69.9093 40.6779C65.7358 39.3816 61.8071 37.0814 58.5023 33.7766C57.9046 33.1789 57.3398 32.5606 56.8076 31.9241C57.6338 31.8504 58.4703 31.8126 59.3156 31.8126C63.9893 31.8126 68.3938 32.9641 72.2613 34.9989C70.2268 31.1311 69.0753 26.7266 69.0753 22.0529C69.0753 21.2076 69.1131 20.3709 69.1868 19.5449C69.8231 20.0769 70.4413 20.6416 71.0391 21.2394C74.3438 24.5441 76.6441 28.4729 77.9403 32.6464C79.2366 28.4729 81.5368 24.5441 84.8416 21.2394C85.4393 20.6416 86.0576 20.0769 86.6938 19.5449C86.7676 20.3711 86.8053 21.2076 86.8053 22.0529C86.8053 26.7264 85.6538 31.1311 83.6193 34.9989C87.4868 32.9644 91.8916 31.8126 96.5651 31.8126C97.4105 31.8126 98.247 31.8504 99.073 31.9241C98.541 32.5604 97.9763 33.1789 97.3783 33.7766C94.0736 37.0814 90.1448 39.3816 85.9713 40.6779C90.1448 41.9741 94.0736 44.2744 97.3783 47.5791Z" fill="#FFCAD4"/>
<path d="M55.0952 41.8475C55.8097 41.426 56.5489 41.0328 57.3124 40.6698C61.5332 38.6628 66.0057 37.8113 70.3722 37.988C66.8739 35.3688 63.9424 31.8855 61.9357 27.6648C61.5727 26.9013 61.2477 26.1295 60.9594 25.3518C61.7627 25.559 62.5634 25.8035 63.3599 26.0868C67.7637 27.652 71.5282 30.2125 74.4909 33.425C73.8694 29.0993 74.2597 24.5633 75.8252 20.1598C76.1084 19.3633 76.4242 18.5878 76.7704 17.834C77.1917 18.5485 77.5852 19.2878 77.9482 20.051C79.9552 24.2718 80.8067 28.744 80.6302 33.1108C83.2494 29.6125 86.7327 26.681 90.9534 24.674C91.7169 24.311 92.4887 23.986 93.2664 23.6978C93.0592 24.501 92.8147 25.3018 92.5314 26.0985C90.9659 30.5023 88.4057 34.2668 85.1932 37.2295C89.5189 36.608 94.0547 36.9983 98.4584 38.5638C99.2549 38.847 100.031 39.1628 100.785 39.509C100.07 39.9305 99.3307 40.3238 98.5672 40.6868C94.3464 42.6938 89.8739 43.5453 85.5074 43.3685C89.0057 45.9878 91.9372 49.4713 93.9439 53.6918C94.3069 54.4553 94.6319 55.227 94.9202 56.0048C94.1169 55.7975 93.3162 55.553 92.5197 55.2698C88.1159 53.7045 84.3514 51.144 81.3887 47.9315C82.0102 52.2573 81.6199 56.7933 80.0544 61.1968C79.7712 61.9933 79.4554 62.7688 79.1092 63.5225C78.6879 62.808 78.2944 62.0688 77.9314 61.3055C75.9244 57.0848 75.0729 52.6125 75.2494 48.2458C72.6302 51.744 69.1469 54.6755 64.9262 56.6825C64.1627 57.0455 63.3909 57.3705 62.6132 57.6588C62.8204 56.8555 63.0649 56.0548 63.3482 55.258C64.9137 50.8543 67.4739 47.0898 70.6864 44.127C66.3607 44.7485 61.8249 44.3583 57.4212 42.7928C56.6247 42.5095 55.8489 42.1938 55.0952 41.8475Z" fill="#FFF5F5"/>
<path d="M77.9399 34.428C81.3916 34.428 84.1899 37.2263 84.1899 40.678C84.1899 44.1298 81.3916 46.928 77.9399 46.928C74.4881 46.928 71.6899 44.1298 71.6899 40.678C71.6899 37.2263 74.4881 34.428 77.9399 34.428Z" fill="#958FCA"/>
<path d="M77.9399 37.553C79.6659 37.553 81.0649 38.952 81.0649 40.678C81.0649 42.404 79.6659 43.803 77.9399 43.803C76.2139 43.803 74.8149 42.404 74.8149 40.678C74.8149 38.952 76.2139 37.553 77.9399 37.553Z" fill="#51489A"/>
<path d="M34.7753 20.3083C34.6986 20.199 34.6233 20.0898 34.5496 19.9803C32.1916 16.479 37.3881 12.8238 39.8861 16.2265C39.9643 16.333 40.0418 16.4408 40.1186 16.55C42.5751 20.042 43.5076 23.7768 42.5711 25.714C40.4313 25.9405 37.2318 23.8005 34.7753 20.3083Z" fill="#FFCAD4"/>
<path d="M52.7835 102.178V128.619C43.9238 126.989 35.703 123.534 28.525 118.658V116.838V89.5204C28.525 87.6224 27.8055 85.7952 26.5115 84.4069L5.30479 61.6542C1.54254 57.6177 -0.175212 52.0867 0.638788 46.6289L2.24204 35.8777C2.42604 34.6432 3.45704 33.7109 4.70379 33.6519C5.68229 33.6054 6.60454 34.1099 7.09329 34.9589L12.853 44.9627C13.865 46.7204 15.1042 48.3374 16.5385 49.7717L30.101 63.3342C30.598 63.8312 31.272 64.1104 31.9748 64.1104C34.1533 64.1104 35.4012 61.6277 34.1013 59.8794L25.0443 47.6994C23.439 45.7267 23.6425 42.8464 25.509 41.1192C26.126 40.5482 27.0793 40.5507 27.6935 41.1244L47.9165 59.6512C51.018 62.4924 52.784 66.5054 52.784 70.7114L52.7835 102.178ZM60.123 129.535C61.5498 129.63 62.9893 129.678 64.4403 129.678C72.0808 129.678 79.4085 128.339 86.202 125.883L88.8155 116.078L89.2108 114.595C89.6995 112.761 90.8655 111.181 92.4735 110.173L118.825 93.6497C123.5 90.7184 126.584 85.8164 127.204 80.3332L128.424 69.5317C128.577 68.1737 127.656 66.9039 126.268 66.6609C125.411 66.5109 124.538 66.8259 123.925 67.4425L115.831 75.5772C114.4 77.0149 112.786 78.2582 111.031 79.2747L94.5002 88.8472C93.865 89.2152 93.1063 89.3425 92.3985 89.1472C90.3128 88.5722 89.7573 85.8669 91.4572 84.5177L103.346 75.0815C105.405 73.5887 105.95 70.7532 104.592 68.6034C104.142 67.8929 103.221 67.6497 102.48 68.0459L78.167 80.7389C74.4385 82.6854 71.6985 86.1082 70.615 90.1724L63.778 115.823L60.123 129.535Z" fill="#FFBEAA"/>
<path d="M25.0437 47.6991C23.4384 45.7263 23.6419 42.8461 25.5084 41.1188C25.9317 40.7273 26.5129 40.6053 27.0344 40.7526C26.4477 42.2728 26.7084 44.0526 27.8439 45.3561L36.7244 56.4951C37.9992 58.0938 36.9069 60.4623 34.8634 60.531C34.7252 60.5358 34.5874 60.5286 34.4522 60.5105C34.3674 60.2936 34.2512 60.0813 34.1007 59.8788L25.0437 47.6991ZM28.5247 118.658C30.6247 120.084 32.8142 121.389 35.0827 122.562V87.2883C35.0827 85.2788 34.3207 83.3438 32.9507 81.8738L10.4954 57.7816C6.51171 53.5073 4.69296 47.6508 5.55471 41.8718L6.66796 34.4066C6.15521 33.8981 5.44546 33.6163 4.70321 33.6516C3.45646 33.7108 2.42546 34.6428 2.24146 35.8773L0.638215 46.6286C-0.175535 52.0863 1.54196 57.6173 5.30421 61.6538L26.5109 84.4065C27.8049 85.7948 28.5244 87.6223 28.5244 89.52L28.5247 118.658ZM94.3617 88.9203C93.5037 90.4483 93.7069 92.0948 95.5782 92.5423C96.3287 92.7218 97.1209 92.5605 97.7749 92.1513L117.956 80.4485C119.763 79.3175 128.377 68.473 128.14 68.0223C127.776 67.3313 127.107 66.8085 126.267 66.6615C125.411 66.5115 124.538 66.8266 123.924 67.443L115.83 75.5778C114.399 77.0155 112.786 78.2588 111.03 79.2753L94.3617 88.9203ZM69.6422 120.544L75.8977 93.3545C76.8889 89.0465 79.6432 85.3523 83.4894 83.173L105.323 70.8018C105.264 70.0433 105.024 69.2885 104.591 68.6035C104.142 67.893 103.221 67.6498 102.479 68.046L78.1667 80.7388C74.4382 82.6855 71.6982 86.108 70.6147 90.1723L63.7777 115.823L60.1227 129.535C61.5494 129.63 62.9892 129.678 64.4399 129.678C65.4854 129.678 66.5249 129.653 67.5579 129.603L69.6422 120.544Z" fill="#FAA68E"/>
<path d="M102.832 71.2744C101.147 72.3391 100.08 72.1739 99.612 71.4336C99.144 70.6934 99.4528 69.6584 101.138 68.5936C102.822 67.5289 105.245 66.8374 105.713 67.5776C106.181 68.3176 104.517 70.2094 102.832 71.2744ZM26.521 44.1526C27.8748 45.6154 28.9485 45.7306 29.5913 45.1356C30.234 44.5409 30.2025 43.4614 28.8488 41.9986C27.495 40.5359 25.332 39.2436 24.6893 39.8384C24.0463 40.4331 25.1673 42.6899 26.521 44.1526Z" fill="#FFEEE5"/>
<path d="M113.127 77.7905C113.26 77.8052 113.392 77.8215 113.523 77.8387C117.707 78.3937 117 84.7077 112.796 84.3227C112.665 84.3107 112.533 84.2972 112.4 84.2824C108.157 83.8069 104.742 82.03 103.913 80.0447C105.161 78.2922 108.884 77.315 113.127 77.7905Z" fill="#FBC1CC"/>
</g>
</g>
<defs>
<clipPath id="clip0_265_2267">
<rect width="128" height="129" fill="white" transform="translate(0.439941 0.810059)"/>
</clipPath>
</defs>
</svg>
