<svg width="129" height="130" viewBox="0 0 129 130" fill="none" xmlns="http://www.w3.org/2000/svg">
<g clip-path="url(#clip0_265_2227)">
<mask id="mask0_265_2227" style="mask-type:luminance" maskUnits="userSpaceOnUse" x="0" y="1" width="129" height="129">
<path d="M128.45 1.67798H0.450195V129.678H128.45V1.67798Z" fill="white"/>
</mask>
<g mask="url(#mask0_265_2227)">
<path d="M2.87045 71.3445C2.8192 70.7595 0.602945 70.1723 0.567445 69.583C0.489695 68.2913 0.450195 66.9893 0.450195 65.678C0.450195 30.3318 29.104 1.67798 64.4502 1.67798C99.7965 1.67798 128.45 30.3318 128.45 65.678C128.45 66.9893 128.411 68.2913 128.333 69.583C128.297 70.1723 125.304 70.7595 125.253 71.3445H2.87045Z" fill="#FFE5D9"/>
<path d="M120.13 59.7487C120.13 87.4592 97.6662 109.923 69.9555 109.923C42.2448 109.923 19.7812 87.4592 19.7812 59.7487C19.7812 32.0382 42.245 9.57422 69.9555 9.57422C97.666 9.57422 120.13 32.0382 120.13 59.7487Z" fill="#FFF2EC"/>
<path d="M128.333 69.583C126.315 103.111 98.4851 129.678 64.4501 129.678C30.4151 129.678 2.58538 103.111 0.567383 69.583H128.333Z" fill="#FFE5D9"/>
<path d="M52.4261 10.9405C52.8251 19.6065 50.2746 27.5878 44.5398 33.3223C38.8051 39.0568 30.8238 41.6075 22.1581 41.2085C21.7591 32.5425 24.3096 24.5613 30.0443 18.8268C35.7791 13.0923 43.7601 10.5416 52.4261 10.9405Z" fill="#C1D0C7"/>
<path d="M13.8313 5.80999C17.8948 5.10949 21.464 5.82449 23.797 8.15724C26.13 10.49 26.845 14.0593 26.1443 18.123C22.0808 18.8235 18.5115 18.1085 16.1785 15.7758C13.8455 13.443 13.1308 9.87348 13.8313 5.80999Z" fill="#C1D0C7"/>
<path d="M27.266 96.0047H7.71729C7.16504 96.0047 6.71729 95.5569 6.71729 95.0047V24.5063C6.71729 23.9541 7.16504 23.5063 7.71729 23.5063H22.129C25.5185 23.5063 28.2662 26.2541 28.2662 29.6436V95.0049C28.266 95.5569 27.8182 96.0047 27.266 96.0047Z" fill="#E5F2FD"/>
<path d="M62.6153 23.5063V96.0047H19.9878V23.5063H62.6153Z" fill="#FFF5F5"/>
<path d="M70.7683 33.0418C70.7683 39.8303 65.265 45.3335 58.4765 45.3335C57.405 45.3335 56.3655 45.1963 55.3748 44.9385C55.38 45.086 55.3828 45.2343 55.3828 45.3833C55.3828 52.1718 49.8795 57.675 43.091 57.675C36.3025 57.675 30.7993 52.1718 30.7993 45.3833C30.7993 38.5948 36.3025 33.0915 43.091 33.0915C44.1625 33.0915 45.202 33.2288 46.193 33.4865C46.1878 33.339 46.185 33.1908 46.185 33.0418C46.185 26.2533 51.6883 20.75 58.4768 20.75C65.2653 20.75 70.7683 26.2533 70.7683 33.0418Z" fill="#C1D0C7"/>
<path d="M116.565 48.5497C116.565 55.3382 111.062 60.8414 104.273 60.8414C100.753 60.8414 97.5787 59.3614 95.3379 56.9902C94.0682 57.4337 92.7034 57.6752 91.2824 57.6752C89.3204 57.6752 87.4657 57.2154 85.8204 56.3979C82.6067 63.3564 75.5662 68.1852 67.3982 68.1852C56.1969 68.1852 47.1167 59.1049 47.1167 47.9037C47.1167 36.7024 56.1969 27.6222 67.3982 27.6222C67.6579 27.6222 67.9164 27.6272 68.1737 27.6367C69.9187 22.9719 74.4162 19.6509 79.6899 19.6509C86.4784 19.6509 91.9817 25.1542 91.9817 31.9427C91.9817 32.3357 91.9629 32.7244 91.9269 33.1082C95.1892 33.2767 98.1147 34.7172 100.218 36.9429C101.487 36.4994 102.852 36.2579 104.273 36.2579C111.062 36.2579 116.565 41.7612 116.565 48.5497Z" fill="#D8E2DC"/>
<path d="M95.6834 28.6033C95.6834 32.2708 92.7104 35.2441 89.0427 35.2441C85.3752 35.2441 82.4019 32.2711 82.4019 28.6033C82.4019 24.9356 85.3749 21.9626 89.0427 21.9626C92.7102 21.9626 95.6834 24.9358 95.6834 28.6033Z" fill="#FFC143"/>
<path d="M94.7771 31.9537C93.6246 33.9219 91.4882 35.2439 89.0427 35.2439C85.3752 35.2439 82.4019 32.2707 82.4019 28.6032C82.4019 26.1577 83.7239 24.0209 85.6921 22.8687C85.1164 23.8522 84.7862 24.9972 84.7862 26.2192C84.7862 29.8867 87.7591 32.8599 91.4269 32.8599C92.6489 32.8599 93.7936 32.5297 94.7771 31.9537Z" fill="#FFB509"/>
<path d="M79.6526 43.5779C79.6526 49.3969 74.9353 54.1142 69.1163 54.1142C63.2973 54.1142 58.5801 49.3969 58.5801 43.5779C58.5801 37.7589 63.2973 33.0417 69.1163 33.0417C74.9353 33.0417 79.6526 37.7589 79.6526 43.5779Z" fill="#F0AEBB"/>
<path d="M76.9786 43.5779C76.9786 47.0079 74.1981 49.7884 70.7681 49.7884C67.3381 49.7884 64.5576 47.0079 64.5576 43.5779C64.5576 40.1479 67.3381 37.3674 70.7681 37.3674C74.1981 37.3674 76.9786 40.1479 76.9786 43.5779Z" fill="#FFCAD4"/>
<path d="M109.969 12.1964L93.817 76.8049C93.5415 77.9056 92.554 78.6409 91.4683 78.6409C91.2735 78.6409 91.0763 78.6172 90.8788 78.5679C89.5805 78.2434 88.7915 76.9279 89.1158 75.6299L105.268 11.0214C105.592 9.72321 106.908 8.93421 108.206 9.25871C109.504 9.58296 110.293 10.8984 109.969 12.1964Z" fill="#A44F3E"/>
<path d="M98.3344 106.102H73.3084V94.1945C56.6189 85.1415 45.1302 67.7195 44.4727 47.5583C44.4529 46.951 54.0027 45.0315 54.0027 45.0315H128.446C128.449 45.2635 128.45 45.4963 128.45 45.729C128.45 66.6623 116.777 84.869 99.5847 94.1945V104.852C99.5844 105.542 99.0249 106.102 98.3344 106.102Z" fill="#19305C"/>
<path d="M69.9553 84.5082V106.102H47.1163V94.1943C29.924 84.8688 18.2505 66.662 18.2505 45.7288C18.2505 45.496 18.252 45.2634 18.255 45.0312H54.0023C53.9993 45.2632 53.9978 45.496 53.9978 45.7288C53.998 60.852 60.0908 74.5519 69.9553 84.5082Z" fill="#304979"/>
<path d="M58.2664 72.709V115.019C58.2664 116.124 57.3709 117.019 56.2664 117.019H42.5474C41.4429 117.019 40.5474 116.124 40.5474 115.019V72.709C40.5474 71.6045 41.4429 70.709 42.5474 70.709H56.2664C57.3709 70.709 58.2664 71.6045 58.2664 72.709Z" fill="#F0AEBB"/>
<path d="M75.9849 72.709V115.019C75.9849 116.124 75.0894 117.019 73.9849 117.019H53.9551C52.8506 117.019 51.9551 116.124 51.9551 115.019V72.709C51.9551 71.6045 52.8506 70.709 53.9551 70.709H73.9849C75.0896 70.709 75.9849 71.6045 75.9849 72.709Z" fill="#FFCAD4"/>
<path d="M81.4968 117.019C81.4968 118.484 80.3098 119.671 78.8456 119.671H37.6873C36.2231 119.671 35.0361 118.484 35.0361 117.019C35.0361 115.555 36.2231 114.368 37.6873 114.368H78.8453C80.3098 114.368 81.4968 115.555 81.4968 117.019Z" fill="#FF9500"/>
<path d="M35.0992 120.384C26.4332 120.783 18.4519 118.233 12.7172 112.498C6.98244 106.764 4.43194 98.7821 4.83094 90.1163C13.4969 89.7173 21.4782 92.2678 27.2127 98.0026C32.9474 103.737 35.4982 111.719 35.0992 120.384Z" fill="#FFA78F"/>
<path d="M34.2141 119.454C26.0734 116.456 19.7091 111.006 16.6516 103.494C13.5944 95.9826 14.3436 87.6373 18.0766 79.8066C26.2174 82.8043 32.5816 88.2543 35.6391 95.7661C38.6966 103.278 37.9474 111.623 34.2141 119.454Z" fill="#FFBFAB"/>
<path d="M53.5968 103.495C50.5393 111.006 44.1751 116.456 36.0343 119.454C32.3011 111.623 31.5518 103.278 34.6093 95.7664C37.6668 88.2547 44.0311 82.8047 52.1718 79.8069C55.9048 87.6377 56.6541 95.9829 53.5968 103.495Z" fill="#FFA78F"/>
<path d="M45.2861 99.0222C45.2861 107.132 41.4461 114.579 35.0361 120.425C28.6263 114.579 24.7861 107.132 24.7861 99.0222C24.7861 90.9122 28.6263 83.4649 35.0361 77.6194C41.4461 83.4649 45.2861 90.9122 45.2861 99.0222Z" fill="#FFCEBF"/>
<path d="M57.4581 112.498C51.7236 118.233 43.7421 120.783 35.0761 120.384C34.6771 111.718 37.2276 103.737 42.9624 98.0026C48.6969 92.2678 56.6784 89.7173 65.3441 90.1163C65.7434 98.7821 63.1929 106.764 57.4581 112.498Z" fill="#FFBFAB"/>
<path d="M59.3849 52.697C62.7537 55.075 64.7719 58.1045 64.7719 61.4035C64.7719 61.5213 64.7694 61.6388 64.7642 61.756C64.4702 68.4818 54.2997 68.4818 54.0057 61.756C54.0007 61.639 53.998 61.5215 53.998 61.4035C53.9982 58.1045 56.0165 55.075 59.3849 52.697Z" fill="#FFC143"/>
<path d="M62.3671 63.9985C62.1656 67.7245 56.6041 67.7245 56.4026 63.9985C56.4014 63.9755 56.3916 63.695 56.3916 63.5773C56.3916 61.1578 57.4771 58.883 59.3849 56.9043C61.2926 58.8833 62.3781 61.1578 62.3781 63.5773C62.3784 63.695 62.3684 63.9758 62.3671 63.9985Z" fill="#FF9500"/>
<path d="M89.7378 43.5779C91.2918 43.5779 92.5513 44.8377 92.5513 46.3914C92.5513 47.9454 91.2915 49.2049 89.7378 49.2049C88.1838 49.2049 86.9243 47.9452 86.9243 46.3914C86.9243 44.8377 88.1838 43.5779 89.7378 43.5779Z" fill="#D8E2DC"/>
<path d="M97.83 51.6704C99.384 51.6704 100.643 52.9302 100.643 54.4839C100.643 56.0379 99.3838 57.2974 97.83 57.2974C96.2763 57.2974 95.0165 56.0377 95.0165 54.4839C95.0165 52.9302 96.2763 51.6704 97.83 51.6704ZM90.0615 70.1599C90.0615 71.7139 91.3213 72.9734 92.875 72.9734C94.4288 72.9734 95.6885 71.7137 95.6885 70.1599C95.6885 68.6062 94.4288 67.3464 92.875 67.3464C91.3213 67.3464 90.0615 68.6059 90.0615 70.1599Z" fill="#D8E2DC"/>
<path d="M69.9552 23.261C71.5092 23.261 72.7687 24.5208 72.7687 26.0745C72.7687 27.6283 71.509 28.888 69.9552 28.888C68.4015 28.888 67.1417 27.6283 67.1417 26.0745C67.1417 24.5208 68.4015 23.261 69.9552 23.261ZM47.9697 37.3675C47.9697 38.9215 49.2295 40.181 50.7832 40.181C52.337 40.181 53.5967 38.9213 53.5967 37.3675C53.5967 35.8135 52.337 34.554 50.7832 34.554C49.2295 34.554 47.9697 35.8138 47.9697 37.3675Z" fill="#A44F3E"/>
</g>
</g>
<defs>
<clipPath id="clip0_265_2227">
<rect width="128" height="129" fill="white" transform="translate(0.450195 0.810059)"/>
</clipPath>
</defs>
</svg>
