<svg width="129" height="129" viewBox="0 0 129 129" fill="none" xmlns="http://www.w3.org/2000/svg">
<path d="M64.4697 128.678C99.7202 128.678 128.47 99.9271 128.47 64.678C128.47 29.4275 99.7202 0.677979 64.4697 0.677979C29.2192 0.677979 0.469727 29.4288 0.469727 64.678C0.469727 99.9271 29.2205 128.678 64.4697 128.678Z" fill="#FFE5D9"/>
<path d="M64.4699 32.5889C95.7539 32.5889 121.112 57.9482 121.112 89.2312C121.112 91.1954 121.012 93.1352 120.818 95.0474C110.002 115.072 88.8259 128.678 64.4699 128.678C40.1139 128.678 18.9391 115.073 8.12314 95.0487C7.92789 93.1364 7.82764 91.1954 7.82764 89.2314C7.82764 57.9472 33.1881 32.5889 64.4699 32.5889Z" fill="#B9C2BD"/>
<path d="M99.8588 45.0068C110.392 53.4465 117.846 65.5673 120.265 79.4223C120.094 79.1603 119.92 78.816 119.744 78.3058C118.638 78.6683 118.602 78.6983 117.296 78.9155L117.238 78.9953C116.719 79.7355 117.265 79.4225 116.352 80.1938C115.265 81.1083 114.557 82.3565 113.342 83.0968C113.196 84.39 113.45 84.681 113.124 86.219C112.997 86.786 112.362 88.3103 111.618 88.1948C111.383 88.1508 110.385 85.6823 110.15 84.9998C109.75 83.8383 109.297 82.9813 109.008 81.6453C108.845 80.9328 108.735 79.568 108.572 79.0888C107.793 79.2043 107.828 79.6995 107.084 79.1765C106.558 78.7978 106.795 78.5668 106.503 77.9998C105.888 77.419 105.253 76.8383 104.619 76.2573C104.128 76.098 102.242 76.3728 101.443 76.286C100.011 76.1543 99.885 76.242 99.033 75.0955C97.5263 75.1695 97.6543 75.734 96.1843 74.4708C95.2235 73.6578 95.4048 72.3508 94.0088 73.091C93.9558 74.2815 94.5353 74.5448 95.0608 75.0955C95.4408 75.517 95.913 75.8068 96.1115 76.3725C96.13 76.3888 96.2213 76.9245 96.2398 76.9973C97.6 77.085 97.9255 76.4325 98.6693 75.8808C99.3955 76.562 98.6878 76.6798 99.7398 77.2155C100.574 77.638 100.411 77.391 100.954 78.0723C101.226 78.9868 99.0873 81.4705 98.3783 81.9208C97.8345 82.2695 97.5458 82.0663 97.055 82.4705C96.3298 83.0825 97.1463 82.9948 95.8773 83.459C94.517 83.9533 93.174 84.9983 91.7423 85.086C91.434 84.242 91.1258 83.3875 90.8173 82.5308C89.9098 79.6118 89.9465 80.7445 89.0205 79.234C88.5853 78.5793 88.7665 78.159 88.4768 77.5783C88.2758 77.143 87.9698 76.9535 87.6963 76.4178C87.2795 75.5898 86.791 74.2978 85.829 74.4283C85.6293 75.0808 86.717 77.2885 86.9883 77.8253C87.2608 78.3633 87.696 78.5955 87.823 79.3655C88.0043 80.4243 87.7873 80.2928 88.3668 81.004C89.5828 82.4693 88.3125 82.2095 90.1993 83.646C91.6125 84.7223 91.2513 85.0408 91.8493 86.4795C92.7743 86.7393 95.5305 85.5073 96.0003 85.8698C96.5625 86.8708 95.349 88.4678 95.0408 89.3395C94.0245 92.2585 92.2475 92.2158 90.8873 94.4513C90.1448 95.658 89.7995 95.8173 89.1103 97.2698C88.3298 98.9105 90.6875 103.455 89.2743 105.359C88.966 105.794 87.9683 106.056 86.7178 107.378C85.3933 108.814 86.7535 108.568 86.2455 110.963C85.8473 111.515 85.3575 111.544 84.868 111.938C84.6868 112.502 84.8323 112.951 84.5228 113.65C84.196 114.492 84.1428 114.042 83.6695 114.725C83.3255 115.261 83.3623 115.479 82.9628 115.973C82.6188 116.425 82.4363 116.553 82.1118 116.845C80.5333 118.298 77.142 118.34 76.8523 118.137C76.0533 117.456 76.5983 117.281 76.3995 116.323C76.2055 115.48 75.7588 114.775 75.3858 114.125L75.3478 114.058C75.1675 113.739 75.0038 113.433 74.9125 113.142C74.259 111.08 74.4958 109.514 73.3538 107.422C71.9208 104.72 74.1505 103.312 74.0593 101.787C74.0235 101.38 73.879 101.133 73.841 100.813C73.5698 99.1285 73.408 97.6193 72.2833 96.2973C71.049 94.8608 71.2128 95.3678 71.6113 93.0018C72.1183 90.286 70.9588 90.9823 69.326 90.9105C68.527 88.443 66.967 89.646 65.4083 90.3735C64.428 90.8228 64.0665 90.243 62.9593 90.4023C60.4928 90.736 62.4338 91.797 59.1325 89.183C57.7538 88.093 58.6788 88.645 57.8635 87.28C57.5923 86.7858 56.7573 86.1335 56.375 85.638C55.1245 84.07 56.6118 82.4868 56.3935 80.6868C56.0125 77.3463 55.4685 80.2503 57.337 76.2135C58.3173 74.0645 59.8035 74.0508 60.1858 73.0913C60.5125 72.2355 60.2943 71.6248 60.911 70.8408C61.4548 70.2023 62.2355 70.3328 62.5438 69.3305C62.979 68.0963 62.1443 67.938 61.2378 67.9068C60.8578 66.6148 60.8578 66.9333 61.1465 65.7428C61.3105 65.0743 61.165 64.7543 61.3105 64.087C61.673 62.4173 64.5205 64.0733 65.337 63.3895C65.717 62.6783 65.7723 61.982 65.337 61.2983C64.882 60.6158 64.285 60.7025 63.9768 60.05C64.666 59.5858 64.158 59.9923 64.7563 59.8608C65.463 59.7015 65.3718 59.497 66.2065 59.3388C66.9513 59.192 67.4235 58.5108 68.1475 58.0468C69.181 57.3783 68.6913 56.7813 69.943 56.5803C71.9558 56.2305 70.6498 56.2893 70.869 54.4153C71.1763 54.2998 71.466 54.167 71.7558 54.0378C72.3908 54.8658 71.593 54.532 72.354 55.0828C72.5538 54.9673 72.7893 54.8518 73.0075 54.7363C72.8978 53.8345 72.482 54.0088 72.2095 52.8923C71.2118 53.0515 70.8493 53.8933 70.0515 53.5885C69.272 53.2988 69.2353 52.1798 69.272 51.2503C69.5618 50.554 71.012 50.1765 71.5733 50.001C72.482 49.6963 72.3538 49.0865 73.1875 48.2575C74.2763 47.1688 73.4773 48.2725 74.0038 46.865C75.2013 46.82 74.6388 46.7773 75.3455 46.4148L75.3813 46.401L75.454 46.371C75.872 46.1818 76.4158 46.139 76.9598 45.9508C78.954 45.2833 79.7703 45.617 81.2205 46.2105C82.3453 46.6758 85.7365 46.6898 85.9905 48.1145C85.1753 48.969 84.3958 48.3455 83.2158 48.4193C83.4328 49.522 83.523 49.522 84.5218 49.8268C84.6858 49.3038 84.449 49.508 84.7215 49.1733C85.0483 49.246 85.375 49.3038 85.7008 49.3638C86.0288 48.2448 86.4085 48.4053 87.516 48.2738C87.3335 47.5035 87.1338 47.7218 87.5508 47.1123C88.695 47.23 87.769 47.1285 88.3313 48.043C89.1293 47.9403 89.9098 47.0545 91.0148 46.939C91.704 46.8663 91.6683 47.1283 92.6463 47.0255C93.4443 46.939 93.4073 46.648 94.2075 46.9828C94.4963 46.4448 94.2075 46.4585 94.9143 46.3293C96.0008 46.14 96.9453 46.8073 97.9963 46.954C97.218 45.9968 96.4733 46.1838 97.435 44.587C98.6498 44.34 98.7583 44.5143 99.2848 45.43C99.5828 45.2625 99.7098 45.094 99.8575 45.0085L99.8588 45.0068ZM38.8598 123.343C36.973 122.519 35.1348 121.605 33.3485 120.61C33.3265 120.536 33.307 120.455 33.2895 120.362C33.0183 118.749 33.7075 118.574 32.9443 115.887C32.4443 114.11 32.6453 109.9 32.1163 107.742C32.032 107.398 31.928 107.106 31.8023 106.883C31.3128 106.071 30.1153 105.694 29.1558 105.039C29.1003 105.026 29.0645 105.01 29.0473 104.981C27.7228 104.052 26.4713 100.406 25.4193 99.0428C24.9308 98.388 24.6225 98.6778 24.4043 97.648C24.1688 96.7045 24.5313 96.865 24.8408 96.0788C23.2265 93.117 26.926 93.1598 26.1653 89.602C26.0013 88.9485 25.5313 88.034 25.1318 87.7453C24.3698 88.079 24.731 88.266 24.3328 88.9058C23.7173 88.557 23.1008 88.2073 22.5025 87.8608C20.6343 86.0595 21.6308 87.3655 21.1065 86.19C19.9818 83.7213 18.9103 85.1023 17.5685 83.8818C16.9693 83.3725 16.8608 82.5735 15.8643 82.7203C14.3585 82.9235 15.1923 83.1555 13.6335 82.428C12.309 81.8033 10.9315 81.0783 10.0056 80.2353C9.96982 78.9283 10.4421 78.8693 9.62557 77.651C9.48132 77.4248 9.31832 77.2145 9.15332 77.0135C11.705 65.403 17.8158 55.1285 26.2865 47.3923C26.9448 47.622 27.8153 47.4708 28.4688 47.4443C28.7033 47.009 28.8488 46.6303 29.2668 46.4708C29.4295 46.413 29.6293 46.3993 29.9008 46.413C29.9365 46.629 29.992 46.8483 30.0463 47.0655C30.0463 47.0818 30.0833 47.226 30.0648 47.1973C30.0833 47.1673 30.1005 47.2838 30.1178 47.3265C31.262 46.659 30.3003 46.644 30.9158 45.4385C29.955 45.2493 30.082 45.3645 29.4828 44.755C30.0648 44.1165 31.187 43.8983 32.022 43.957C31.9665 44.539 31.6953 44.524 31.9145 45.017C32.567 44.6105 33.0208 43.5228 34.0715 43.725C34.2713 43.8693 34.508 44.001 34.725 44.1315C34.18 44.6395 33.3648 44.6695 32.658 44.9595C32.3485 48.1118 33.6558 45.4688 33.2193 47.6325C33.9988 47.5748 34.7608 47.0078 35.0505 46.427C34.7608 46.0495 34.3428 46.0495 34.1083 45.599C34.2908 45.0183 34.681 44.5783 35.233 44.3163C35.606 44.1395 36.0518 44.045 36.5575 44.045C42.324 44.089 39.585 44.3498 41.3633 45.164C41.7615 45.3373 42.4683 45.426 42.705 45.7738C43.0675 46.3258 42.7235 46.8475 43.3033 47.284C43.8113 47.6615 43.884 47.269 44.555 48.113C44.4108 48.591 44.0655 49.0853 43.3588 49.1003C42.3795 49.114 42.9593 48.4455 41.9073 48.5483C41.927 49.5343 42.905 49.913 41.9973 50.45C41.1993 50.9303 41.7063 50.2768 41.1093 50.6105C41.0908 50.6255 41.0365 50.6545 41.0193 50.6695C40.9835 50.6983 40.9465 50.7423 40.928 50.771C40.8205 50.8875 40.7283 50.9893 40.6393 51.092C39.189 50.6983 39.4615 50.8738 38.5898 49.9153C38.2643 49.5528 38.2098 49.465 37.629 49.5088C37.2665 49.5225 36.7953 49.682 36.45 49.3633C37.1578 48.4775 37.503 49.3345 38.5365 48.8103C38.7178 48.7225 39.8598 47.838 40.0423 47.6335C39.734 46.936 40.0053 47.5158 39.5538 47.0665C38.5375 46.0365 38.2455 46.2963 36.8703 46.2963C36.2248 47.0388 35.742 47.9568 35.039 48.3598C34.614 48.6035 34.1095 48.6588 33.442 48.3735C33.7503 49.623 34.5483 48.6645 34.6198 50.1738C34.0943 50.0723 33.8218 49.81 33.278 49.9995C32.1165 50.4348 33.151 50.391 33.241 50.6243C33.241 50.6393 33.7848 50.697 33.241 50.9003C32.6418 51.1173 33.1498 50.7838 31.9905 50.1013C32.1533 49.8115 32.3173 49.5065 32.48 49.2018C31.5378 49.4928 30.3578 49.957 29.2528 50.4938C28 51.1185 26.822 51.831 26.1143 52.4833C26.0958 53.5733 26.2955 52.8458 26.4053 54.1403C28.091 54.2408 27.5473 54.7475 29.2343 55.228C29.5588 55.317 29.9778 55.4035 30.486 55.49C30.486 56.304 29.7598 56.9138 30.2665 57.7568C31.4455 58.5823 31.4813 56.9715 31.7723 55.9415C35.764 55.1078 33.8403 53.9348 34.8715 51.7385C35.0263 51.4105 35.2455 51.0608 35.562 50.683C35.8693 50.698 37.1208 50.8298 37.3933 50.8863C38.3008 51.0455 37.8113 51.2638 38.7905 51.6993C38.772 52.4845 38.3738 53.5005 39.534 53.3123C40.423 53.154 40.2245 52.4555 41.311 52.281C41.7995 53.4288 41.6735 53.923 41.8908 55.3018C44.5028 56.319 43.341 57.1458 42.833 59.05C43.161 59.2093 43.504 59.3548 43.8493 59.4993C43.832 60.0513 43.8123 60.5893 43.795 61.1273C43.7408 61.1273 41.0008 60.5303 40.8205 60.4738C41.2373 59.282 41.9995 59.2683 42.489 58.049C41.5098 58.2223 41.5815 58.527 40.8748 58.7453C40.2408 58.9345 39.7513 58.803 39.0803 58.8908C38.8448 59.6738 39.0618 58.2073 39.1358 59.2083C39.1715 59.587 39.354 59.2245 39.0988 59.6298C38.1913 59.2083 38.5005 58.221 36.8135 59.1355C37.1945 59.3098 37.5745 59.4693 37.974 59.6298C37.921 60.7463 37.8298 59.9045 37.594 60.646C37.0133 62.5478 39.1713 61.3713 39.7338 61.2708C39.5883 62.273 38.9718 62.273 38.101 62.5478C37.1415 62.8388 36.8505 63.2313 36.0883 63.4058C36.0883 62.214 35.908 63.2165 36.4323 62.3895C35.6703 62.461 35.1078 62.8098 34.3828 63.1158L34.3113 63.1435C33.3795 63.5235 33.2385 63.58 33.1313 64.7705C32.3333 65.0165 31.4085 65.2948 30.846 65.8755C30.2848 66.4125 29.7213 66.9483 29.1763 67.4713C29.1233 67.5153 29.085 67.559 29.0515 67.588C29.2513 69.0833 29.0515 69.1123 28.1428 69.6953C27.3818 70.1873 27.1278 70.1733 26.421 70.798C24.1543 72.8315 25.2433 71.8858 25.368 75.3868C24.897 75.2425 24.4443 75.082 24.009 74.9225C23.6638 72.598 24.1348 73.3695 22.2678 72.8313C20.254 72.2505 20.5253 73.2378 19.6918 73.412C18.7668 73.614 18.313 72.569 16.9713 73.4408C16.2288 73.9478 15.521 74.2825 15.3398 75.182C15.1228 76.272 14.633 77.0688 14.7048 78.2755C14.833 81.5445 17.8063 81.7315 18.5683 80.2073C19.0753 79.191 18.9493 78.6393 20.5993 78.9003C20.762 79.772 20.508 80.4105 20.2898 81.0793C20.1455 81.4708 19.746 82.182 19.9458 82.7213C21.1248 83.2005 21.1605 82.2988 22.7205 83.2283C22.8303 84.7813 22.0138 86.5238 23.21 87.4245C24.1338 88.107 24.1893 87.4973 25.0045 87.353C25.912 87.1938 25.7493 87.7595 26.584 87.891C27.055 87.309 26.8553 87.674 27.1648 86.9603C27.7085 85.7283 27.853 86.3078 29.1415 85.5538C29.2673 85.481 29.376 85.407 29.504 85.3205C29.6483 85.6253 29.8123 85.9163 29.9555 86.2063C30.899 85.0885 31.0075 86.1775 32.0963 86.4823C32.565 86.6105 32.8975 86.6565 33.155 86.66C33.946 86.6715 34.0268 86.287 35.1065 86.6693C35.2348 86.7293 35.3975 86.772 35.543 86.816C35.5603 86.816 35.6145 86.8448 35.6145 86.875C35.6343 86.89 35.6873 86.9328 35.7058 86.949C35.887 87.151 35.9068 87.3555 36.051 87.5725C36.7945 88.2838 37.5383 88.9963 38.2635 89.6925C39.6953 90.2595 39.6953 89.1983 41.328 90.7803C42.0173 91.4338 41.708 91.421 42.089 92.2618C42.1445 92.3935 42.253 92.5228 42.3245 92.6833C42.47 93.0758 42.6328 93.4523 42.7968 93.8298C43.5393 94.8033 44.5553 94.1935 45.5888 95.1958C46.187 95.7765 45.7343 95.6023 47.0575 95.8343C49.107 96.168 48.3103 95.9798 49.8693 97.1563C50.4675 97.5915 50.6118 97.3445 51.174 97.722C51.9545 98.8108 51.7548 99.9871 51.1025 100.946C49.0888 103.879 49.778 103.4 49.6868 105.724C49.614 107.059 49.233 109.818 47.9813 110.152C43.4305 111.432 46.0773 112.317 44.881 114.568C44.537 115.207 44.2818 115.367 44.0648 115.876C43.1595 117.995 43.7935 118.707 41.1088 118.228C41.364 118.677 41.2 118.372 41.454 118.779C42.252 120.013 42.379 120.944 40.7463 121.246C39.386 121.508 39.9668 121.246 39.8398 122.756C39.3133 122.975 39.0778 122.756 38.7335 123.105L38.8618 123.344L38.8598 123.343ZM26.9075 46.8368C27.2585 46.7905 27.2573 46.6383 28.1765 46.4153C28.1038 46.1105 28.0483 46.1105 27.9768 45.995L27.948 45.9373C27.5983 46.2328 27.2505 46.5343 26.9075 46.838V46.8368ZM75.3828 63.677L75.347 63.6515C75.22 63.565 75.094 63.4783 74.9855 63.3768C74.1875 62.6643 74.0225 62.027 73.1358 62.1863C73.116 62.8548 73.2085 62.8825 73.534 63.319C74.7673 64.8583 74.3863 64.3363 75.3468 64.902L75.3825 64.9228C75.61 65.0533 75.8733 65.2358 76.2348 65.4978C75.0015 66.5843 76.1448 66.701 75.3825 67.0648L75.3468 67.082C75.2728 67.1098 75.2025 67.1398 75.1483 67.1685C74.893 66.5288 75.4555 66.8348 74.803 65.9053C74.4405 65.426 74.0963 65.2805 73.534 65.0173C72.1183 64.3498 72.3008 63.828 71.4303 62.956C70.45 62.986 70.6693 63.2908 69.98 63.6395C69.1463 64.0448 69.2733 63.568 68.293 63.6533C67.495 65.0633 68.637 63.8865 67.1868 65.048C65.4455 66.3978 66.8785 67.8065 64.0865 68.2293C63.8868 68.258 63.814 68.2293 63.6155 68.3008C63.0878 68.489 63.396 68.3295 63.0878 68.6345C63.3245 69.1875 62.9978 69.0988 63.941 69.2303C65.6638 69.4613 65.882 68.4023 67.1338 68.1403C67.7493 68.0098 71.6128 67.8493 71.8843 67.922C72.718 68.8528 72.0298 69.5063 72.0298 70.2893C72.9385 70.7685 74.2248 70.885 74.7513 71.3793C75.3495 71.945 75.0595 71.8573 75.3495 71.959L75.3853 71.9705C75.495 72.0018 75.6533 72.0583 75.9303 72.1633C76.6555 72.4093 76.6185 72.5548 77.3978 72.6125C78.1055 70.2453 77.3793 70.4925 80.789 71.5803C84.3433 72.7443 82.7473 71.683 84.253 71.8423C84.9978 71.9163 84.798 72.147 85.8315 72.0165C86.03 71.61 87.4988 67.9208 85.5948 68.3863C85.0325 68.5305 85.4145 68.7338 84.6155 68.5305C83.7818 68.3145 84.5798 68.154 83.656 68.2835C82.7473 68.4153 81.6608 69.2143 80.9528 66.4695C80.6815 65.481 80.1908 64.6255 79.0673 66.1195C79.357 66.6275 79.5568 66.6715 79.8825 67.1658C79.7925 67.31 79.4843 67.6738 79.3755 67.7905C78.76 68.4003 79.6308 68.1103 78.632 68.2398C78.0883 67.8333 78.1978 67.3103 77.6713 66.585C76.7463 65.2328 77.3445 65.8588 76.8733 64.5655C76.5025 64.24 75.8873 63.9963 75.3848 63.6765L75.3828 63.677ZM94.7515 102.773C93.9548 103.18 93.845 104.111 93.247 104.632C92.5945 105.228 91.7228 104.953 91.47 106.056C91.1433 107.435 92.0138 107.015 91.0533 108.815C90.7093 109.482 90.6908 111.152 91.2173 111.647C92.7935 113.17 93.6468 109.324 94.0093 108.118C94.2818 107.262 94.5358 106.289 94.8255 105.489C95.1153 104.633 95.5323 103.879 94.7515 102.773ZM92.1408 62.2565C92.2678 64.03 93.3185 64.7115 94.0633 65.5243C93.9733 66.3673 93.7723 66.149 93.7908 67.3245C94.6798 67.9653 95.331 68.3558 96.494 68.038C96.6568 66.6143 96.203 66.6858 95.7688 65.7135C95.8415 65.597 96.04 65.4525 96.076 65.4238C96.404 64.9885 96.24 65.597 96.404 64.8568C95.5518 64.582 94.1733 63.709 94.0658 62.5635C94.4825 62.2298 94.3555 62.4318 94.6628 62.2298C95.3338 61.7933 94.8268 62.4608 95.225 61.7205C94.881 61.053 94.4998 60.9365 93.6663 61.2703C93.3038 61.4158 92.3418 62.0983 92.142 62.2575L92.1408 62.2565ZM84.723 62.722C84.1618 61.939 84.1965 61.5453 83.1088 61.5165C82.6745 61.9818 82.1665 62.678 81.931 63.3895C81.5685 64.4645 81.8225 63.7233 81.8583 64.886C81.8398 64.9288 81.8583 64.9888 81.8583 65.0315C81.8398 65.7278 81.6758 64.8998 81.7855 65.5395C82.6388 65.364 81.9865 65.379 82.6215 65.1758C83.2198 64.9725 85.051 64.4205 85.5775 64.5523C86.828 64.842 87.88 65.8305 89.2955 64.842C89.2215 63.5788 87.6985 63.0995 86.6468 62.5465C86.7023 61.386 87.0093 62.3005 86.9365 61.1818C86.574 61.1668 86.3558 61.109 86.0115 61.2545C85.1953 61.617 85.649 61.7198 85.649 61.8503C85.6848 62.4738 86.4653 61.7198 85.6318 62.49C85.3963 62.692 85.014 62.692 84.7243 62.722H84.723ZM63.5403 53.922C63.5055 55.9555 64.2123 55.2718 64.882 56.2753C64.5748 57.132 64.5195 56.4645 64.1765 57.349C63.8683 58.0903 64.248 57.423 64.0483 58.7138C64.5748 58.7438 65.3543 58.5555 66.0435 58.4968C67.0238 58.409 67.0043 58.3225 67.3495 57.32C66.8058 56.6525 66.2618 55.984 65.6995 55.3165C64.9905 54.2403 65.6995 54.9818 65.4825 54.081C65.3198 53.7613 65.173 53.4435 65.0288 53.1225C64.0853 53.444 64.1765 53.3563 63.5403 53.922Z" fill="#D8E2DC"/>
<path d="M99.3842 50.3241L98.8357 49.7756L96.5747 47.5146L96.0262 46.9661C94.2422 47.6429 92.0089 50.5676 91.1279 52.4129L91.4017 52.6876L93.6627 54.9486L93.9374 55.2234C95.7827 54.3411 98.7074 52.1081 99.3842 50.3241Z" fill="#FFCAD4"/>
<path d="M99.384 50.3241L98.8355 49.7756L96.5745 47.5146L96.026 46.9661C95.6137 47.1231 95.1795 47.3991 94.7407 47.7536L98.5962 51.6091C98.9507 51.1714 99.2267 50.7361 99.3837 50.3251L99.384 50.3241Z" fill="white"/>
<path d="M103.171 61.0753L102.622 60.5268L100.361 58.2658L99.8124 57.7173C98.0284 58.394 95.7951 61.3188 94.9141 63.164L95.1889 63.4388L97.4499 65.6998L97.7246 65.9746C99.5699 65.0923 102.495 62.8603 103.172 61.0753H103.171Z" fill="#FFCAD4"/>
<path d="M103.171 61.0753L102.622 60.528L100.361 58.2659L99.8126 57.7188C99.4003 57.8748 98.9661 58.1505 98.5273 58.5063L102.383 62.3618C102.738 61.924 103.015 61.4888 103.171 61.0765V61.0753Z" fill="white"/>
<path d="M72.303 23.2429L72.8515 23.7914L75.1125 26.0524L75.661 26.6009C74.9843 28.3849 72.0595 30.6182 70.2143 31.5002L69.9395 31.2254L67.6785 28.9644L67.4038 28.6897C68.286 26.8457 70.519 23.9197 72.303 23.2429Z" fill="#FFCAD4"/>
<path d="M72.3034 23.2429L72.8519 23.7914L75.1129 26.0524L75.6614 26.6009C75.5054 27.0132 75.2296 27.4484 74.8739 27.8862L71.0181 24.0304C71.4559 23.6747 71.8911 23.3989 72.3034 23.2429Z" fill="white"/>
<path d="M61.552 19.458L62.1005 20.0065L64.3615 22.2675L64.91 22.816C64.2333 24.6 61.3085 26.8333 59.4633 27.7143L59.1885 27.4395L56.9275 25.1785L56.6528 24.9038C57.535 23.0598 59.767 20.1338 61.551 19.457L61.552 19.458Z" fill="#FFCAD4"/>
<path d="M61.5516 19.458L62.1001 20.0065L64.3621 22.2675L64.9093 22.816C64.7533 23.2283 64.4776 23.6635 64.1231 24.1013L60.2666 20.2455C60.7041 19.8898 61.1393 19.6138 61.5516 19.458Z" fill="white"/>
<path d="M53.5209 70.4283L60.1546 79.8598L62.2701 77.3021L58.5161 67.3843C58.9872 66.9778 58.1016 67.7838 60.0391 66.0403C61.9766 64.2968 70.4904 56.4703 78.2014 50.2013L100.41 81.5951L102.435 79.5698L90.1594 40.4408C95.1766 36.3048 99.0586 33.0058 100.105 31.8105C103.302 28.157 106.195 23.2843 103.912 18.7175C99.3436 16.4335 94.4721 19.3273 90.8186 22.5233C89.6224 23.5695 86.3246 27.4515 82.1884 32.4685L43.0594 20.1935L41.0342 22.2188L72.4269 44.427C66.1591 52.1393 58.3316 60.6515 56.5891 62.5893C54.8444 64.5268 55.6517 63.6413 55.2452 64.1123L45.3274 60.3583L42.7697 62.4738L52.2012 69.1075C51.1769 70.8695 51.7602 71.4528 53.5222 70.4286L53.5209 70.4283Z" fill="white"/>
<path d="M53.521 70.4282L60.1548 79.8597L60.665 79.2432L54.2345 69.9365L53.522 70.4285L53.521 70.4282Z" fill="#C8CACC"/>
<path d="M43.3855 61.9634L42.769 62.4739L52.2005 69.1076L52.6925 68.3951L43.3855 61.9634Z" fill="#C8CACC"/>
<path d="M78.2026 50.2004L100.411 81.5941L101.192 80.8124L79.5144 49.1299L78.2026 50.2004Z" fill="#C8CACC"/>
<path d="M41.8137 21.437L41.0332 22.2188L72.4259 44.427L73.4964 43.1153L41.8124 21.4383L41.8137 21.437Z" fill="#C8CACC"/>
<path d="M102.003 20.6242C101.554 20.1749 101.01 19.8587 100.406 19.6704L100.04 20.6924C100.421 20.9199 100.779 21.1969 101.106 21.5227C101.432 21.8494 101.709 22.2074 101.936 22.5874L102.958 22.2214C102.77 21.6187 102.454 21.0749 102.005 20.6244L102.003 20.6242ZM99.59 19.4972C98.6582 19.3852 97.6362 19.5319 96.6235 19.9209C97.5357 19.8447 98.4525 19.9774 99.2942 20.3204L99.59 19.4972ZM102.308 23.3342C102.652 24.1759 102.784 25.0917 102.708 26.0049C103.098 24.9922 103.244 23.9704 103.132 23.0384L102.308 23.3342Z" fill="#15BDB1"/>
<path d="M46.6814 76.576L46.6894 76.568L46.8234 76.4388L46.9562 76.3105L47.0912 76.18L47.2262 76.0495L47.3612 75.919L47.4974 75.7873L47.6337 75.6555L47.7712 75.5238L47.9097 75.391L48.0472 75.2583L48.1857 75.1243L48.3242 74.9893L48.4639 74.8543L48.6037 74.718L48.7444 74.5818L48.8864 74.4455L49.0284 74.308L49.1704 74.1705L49.3137 74.032L49.4569 73.8923L49.6012 73.7525L49.7454 73.6128L49.8897 73.4718L50.0352 73.3298L50.1807 73.1878L50.3274 73.0445L50.4742 72.9013L50.6219 72.757L50.7697 72.6115L50.9174 72.466L50.0919 71.6255L49.9442 71.7698L49.7974 71.914L49.6507 72.0573L49.5039 72.2015L49.3584 72.3435L49.2142 72.4855L49.0699 72.6265L48.9257 72.7673L48.7824 72.907L48.6392 73.0455L48.4959 73.184L48.3539 73.3225L48.2119 73.46L48.0699 73.5975L47.9292 73.7338L47.7884 73.87L47.6487 74.005L47.5089 74.139L47.3704 74.274L47.2319 74.408L47.0934 74.5408L46.9559 74.6735L46.8184 74.8053L46.6822 74.937L46.5459 75.0675L46.4097 75.198L46.2747 75.3285L46.1407 75.4578L46.0067 75.5883L45.8727 75.7165L45.8647 75.7245L46.6822 76.5733L46.6814 76.576ZM112.7 76.0898L112.559 76.4548L112.42 76.815L112.28 77.1695L112.14 77.5183L111.999 77.8623L111.858 78.2005L111.718 78.5343L111.577 78.8623L111.437 79.1855L111.294 79.503L111.153 79.817L111.011 80.1253L110.869 80.4278L110.728 80.7258L110.72 80.7395L111.779 81.258L111.789 81.2373L111.936 80.9313L112.08 80.6208L112.225 80.3055L112.37 79.9858L112.514 79.6613L112.66 79.331L112.803 78.9963L112.946 78.6555L113.09 78.3115L113.234 77.9605L113.376 77.6048L113.52 77.2445L113.661 76.8785L113.803 76.5068L112.701 76.0888L112.7 76.0898ZM109.077 83.8148L109.005 83.9348L108.86 84.1725L108.716 84.4058L108.571 84.6355L108.426 84.8595L108.28 85.079L108.135 85.295L107.989 85.5063L107.844 85.714L107.698 85.9173L107.553 86.117L107.406 86.3123L107.261 86.504L107.114 86.691L106.967 86.8745L106.819 87.0548L106.674 87.2303L106.526 87.4023L106.38 87.5698L106.231 87.7348L106.085 87.8953L105.938 88.0523L105.789 88.2058L105.641 88.3558L105.617 88.3813L106.441 89.223L106.478 89.1873L106.635 89.0268L106.792 88.8628L106.95 88.6953L107.106 88.5243L107.262 88.35L107.418 88.1723L107.573 87.9898L107.729 87.8038L107.883 87.6133L108.037 87.4205L108.191 87.223L108.344 87.022L108.498 86.8175L108.65 86.6085L108.803 86.395L108.955 86.178L109.107 85.9563L109.259 85.731L109.41 85.5013L109.561 85.268L109.71 85.0303L109.862 84.7878L110.012 84.5408L110.083 84.4195L109.073 83.8123L109.077 83.8148ZM102.965 90.5005L102.961 90.5028L102.809 90.594L102.659 90.683L102.507 90.7685L102.356 90.8518L102.203 90.9325L102.052 91.0098L101.899 91.086L101.747 91.1588L101.594 91.2293L101.442 91.2975L101.288 91.3633L101.135 91.4268L100.981 91.488L100.828 91.548L100.674 91.6045L100.519 91.66L100.364 91.713L100.209 91.7638L100.053 91.8135L99.8974 91.8598L99.7404 91.9048L99.5844 91.9488L99.4274 91.9893L99.2704 92.0285L99.1122 92.0655L98.9539 92.1013L98.7957 92.1348L98.6364 92.167L98.4772 92.197L98.3179 92.2258L98.1574 92.2535L97.9969 92.279L97.8364 92.3033L97.6747 92.3263L97.6654 92.3275L97.8154 93.4973L97.8352 93.4938L98.0084 93.4695L98.1804 93.444L98.3514 93.4163L98.5234 93.3875L98.6954 93.3563L98.8674 93.324L99.0384 93.2893L99.2094 93.2523L99.3792 93.2143L99.5502 93.1738L99.7212 93.131L99.8922 93.086L100.063 93.0398L100.232 92.9913L100.401 92.9405L100.569 92.8875L100.738 92.832L100.909 92.7743L101.076 92.7143L101.244 92.652L101.412 92.5873L101.58 92.5203L101.747 92.451L101.915 92.3783L102.082 92.3033L102.248 92.226L102.415 92.1463L102.581 92.0643L102.747 91.9788L102.913 91.891L103.078 91.7998L103.243 91.7063L103.409 91.6105L103.572 91.5113L103.576 91.509L102.96 90.5045L102.965 90.5005ZM94.2167 92.5245H94.1969L94.0272 92.5233L93.8562 92.521L93.6852 92.5188L93.5132 92.5153L93.3412 92.5118L93.1692 92.5073L92.9959 92.5028L92.8227 92.497L92.6484 92.4913L92.4742 92.4855L92.2999 92.4798L92.1257 92.4728L91.9502 92.4658L91.7734 92.46L91.5967 92.453L91.4199 92.446L91.2432 92.438L91.0664 92.431L90.8887 92.424L90.7109 92.417L90.5319 92.41L90.3529 92.403L90.1739 92.396L89.9937 92.389L89.8134 92.382L89.6322 92.375L89.4509 92.3693L89.2697 92.3635L89.0872 92.3578L88.9047 92.352L88.7222 92.3475L88.5387 92.343L88.3552 92.3395L88.3367 92.3383L88.3159 93.5173H88.3322L88.5124 93.5208L88.6927 93.5253L88.8729 93.5298L89.0519 93.5355L89.2322 93.5413L89.4124 93.547L89.5914 93.5528L89.7704 93.5598L89.9494 93.5668L90.1284 93.5738L90.3062 93.5808L90.4839 93.5878L90.6617 93.5948L90.8394 93.6018L91.0172 93.6088L91.1949 93.6158L91.3727 93.6228L91.5504 93.6298L91.7282 93.6368L91.9049 93.6438L92.0817 93.6508L92.2594 93.6578L92.4349 93.6635L92.6117 93.6693L92.7884 93.675L92.9652 93.6795L93.1419 93.684L93.3187 93.6885L93.4942 93.692L93.6697 93.6955L93.8452 93.6978L94.0207 93.7L94.1962 93.7013H94.2159L94.2204 92.5223L94.2167 92.5245ZM84.7434 92.4195L84.5909 92.431L84.3992 92.4473L84.2052 92.4645L84.0134 92.483L83.8194 92.5028L83.6254 92.5248L83.4314 92.5478L83.2374 92.572L83.0422 92.5975L82.8469 92.6263L82.6507 92.6563L82.4544 92.6885L82.2582 92.7208L82.0619 92.7565L81.8644 92.7935L81.6669 92.8315L81.4684 92.872L81.2699 92.9148L81.0714 92.9598L80.8717 93.007L80.6719 93.0568L80.4709 93.1075L80.2712 93.1595L80.0702 93.215L79.8692 93.2728L79.6682 93.3328L79.4662 93.395L79.2642 93.4598L79.0609 93.5268L78.8577 93.5973L78.8312 93.6065L79.2307 94.7163L79.2469 94.7105L79.4387 94.6448L79.6292 94.5825L79.8197 94.5213L80.0102 94.4623L80.2007 94.4068L80.3912 94.3513L80.5804 94.2993L80.7697 94.2485L80.9589 94.2L81.1482 94.1538L81.3364 94.1088L81.5247 94.0673L81.7129 94.0268L81.8999 93.9888L82.0869 93.9518L82.2752 93.917L82.4622 93.8848L82.6492 93.8525L82.8362 93.8225L83.0222 93.7948L83.2092 93.7683L83.3952 93.7428L83.5812 93.7198L83.7672 93.6978L83.9519 93.677L84.1367 93.6573L84.3227 93.6388L84.5062 93.6225L84.6909 93.6075L84.8434 93.596L84.7509 92.4205L84.7434 92.4195ZM75.5174 95.1018L75.3604 95.1895L75.1514 95.3095L74.9424 95.433L74.7334 95.5588L74.5232 95.6893L74.3142 95.822L74.1039 95.9583L73.8949 96.0968L73.6847 96.24L73.4744 96.3855L73.2632 96.5355L73.0519 96.689L72.8417 96.846L72.6304 97.0053L72.4192 97.1693L72.2079 97.3368L71.9954 97.5078L71.7829 97.682L71.5704 97.8598L71.3569 98.041L71.1434 98.228L70.9309 98.4173L70.7174 98.61L70.6644 98.6598L71.4682 99.5223L71.5132 99.4818L71.7187 99.2948L71.9242 99.1123L72.1287 98.9345L72.3332 98.7603L72.5364 98.5893L72.7409 98.4218L72.9429 98.2578L73.1462 98.0985L73.3482 97.9425L73.5502 97.789L73.7522 97.639L73.9532 97.4935L74.1542 97.3515L74.3552 97.2118L74.5549 97.0768L74.7547 96.944L74.9544 96.8148L75.1542 96.689L75.3527 96.5665L75.5512 96.4465L75.7487 96.33L75.9462 96.2158L76.1032 96.128L75.5202 95.1028L75.5174 95.1018ZM68.1529 101.226L68.1322 101.248L67.9152 101.495L67.7039 101.738L67.4927 101.977L67.2814 102.213L67.0712 102.447L66.8609 102.678L66.6507 102.905L66.4417 103.129L66.2327 103.351L66.0249 103.57L65.8172 103.786L65.6094 104L65.4027 104.21L65.1959 104.418L64.9892 104.622L64.7837 104.824L64.5782 105.024L64.3737 105.22L64.1692 105.414L64.1299 105.45L64.9324 106.313L64.9764 106.272L65.1867 106.074L65.3969 105.873L65.6072 105.669L65.8174 105.463L66.0287 105.252L66.2399 105.04L66.4512 104.824L66.6637 104.607L66.8762 104.386L67.0897 104.164L67.3022 103.937L67.5157 103.708L67.7292 103.476L67.9439 103.241L68.1587 103.003L68.3734 102.762L68.5894 102.518L68.8054 102.272L69.0157 102.032L69.0364 102.01L68.1542 101.228L68.1529 101.226ZM61.4914 107.731L61.3494 107.843L61.1532 107.996L60.9557 108.147L60.7594 108.296L60.5632 108.443L60.3679 108.587L60.1739 108.728L59.9799 108.867L59.7859 109.003L59.5932 109.137L59.4004 109.269L59.2077 109.398L59.0159 109.525L58.8254 109.65L58.6349 109.771L58.4444 109.89L58.2552 110.008L58.0659 110.122L57.8767 110.234L57.6897 110.344L57.5027 110.451L57.3157 110.556L57.1297 110.66L56.9437 110.761L56.7589 110.859L56.6699 110.905L57.2104 111.954L57.3087 111.903L57.5027 111.799L57.6967 111.694L57.8907 111.586L58.0859 111.476L58.2812 111.364L58.4764 111.249L58.6727 111.132L58.8689 111.013L59.0664 110.891L59.2639 110.767L59.4624 110.641L59.6609 110.512L59.8594 110.38L60.0592 110.246L60.2589 110.11L60.4599 109.971L60.6609 109.83L60.8619 109.686L61.0639 109.539L61.2659 109.39L61.4679 109.239L61.6712 109.085L61.8757 108.928L62.0789 108.769L62.2197 108.657L61.4912 107.73L61.4914 107.731ZM53.5102 112.258L53.3554 112.309L53.1822 112.364L53.0089 112.417L52.8369 112.469L52.6659 112.519L52.4949 112.566L52.3252 112.611L52.1554 112.655L51.9869 112.697L51.8194 112.736L51.6519 112.773L51.4844 112.809L51.3182 112.842L51.1532 112.875L50.9882 112.905L50.8232 112.933L50.6604 112.96L50.4977 112.984L50.3349 113.007L50.1732 113.028L50.0127 113.048L49.8522 113.065L49.6929 113.081L49.5337 113.095L49.3744 113.106L49.2174 113.117L49.0604 113.125L48.9034 113.132L48.7474 113.138L48.5927 113.141L48.4392 113.143H48.2857L48.1322 113.142L47.9809 113.14L47.9219 113.138L47.8792 114.315L47.9519 114.318L48.1169 114.321L48.2819 114.322H48.4482L48.6157 114.32L48.7832 114.316L48.9507 114.31L49.1192 114.303L49.2902 114.292L49.4599 114.281L49.6309 114.268L49.8019 114.253L49.9739 114.237L50.1472 114.217L50.3204 114.196L50.4947 114.173L50.6679 114.149L50.8434 114.124L51.0189 114.095L51.1957 114.064L51.3724 114.032L51.5502 113.998L51.7279 113.962L51.9057 113.924L52.0847 113.883L52.2649 113.841L52.4452 113.797L52.6254 113.75L52.8067 113.702L52.9892 113.651L53.1717 113.598L53.3542 113.544L53.5377 113.487L53.7212 113.428L53.8759 113.378L53.5122 112.256L53.5102 112.258ZM44.5774 112.624L44.5197 112.608L44.3847 112.569L44.2507 112.527L44.1157 112.484L43.9817 112.44L43.8477 112.394L43.7149 112.348L43.5844 112.301L43.4527 112.251L43.3222 112.2L43.1929 112.148L43.0637 112.095L42.9354 112.041L42.8084 111.985L42.6814 111.929L42.5557 111.87L42.4309 111.811L42.3062 111.751L42.1814 111.69L42.0589 111.627L41.9377 111.564L41.8152 111.498L41.6939 111.432L41.5739 111.364L41.4549 111.296L41.3359 111.227L41.2169 111.155L41.1004 111.084L40.9837 111.011L40.8682 110.937L40.7527 110.862L40.6384 110.786L40.5242 110.71L40.4122 110.631L40.3002 110.553L40.1882 110.472L40.0774 110.391L39.9677 110.309L39.8592 110.226L39.7507 110.143L39.6432 110.058L39.5947 110.019L38.8522 110.935L38.9077 110.98L39.0232 111.071L39.1397 111.161L39.2564 111.25L39.3754 111.339L39.4944 111.427L39.6144 111.512L39.7357 111.598L39.8582 111.682L39.9807 111.764L40.1042 111.846L40.2289 111.927L40.3537 112.007L40.4794 112.086L40.6064 112.164L40.7334 112.24L40.8627 112.315L40.9919 112.389L41.1224 112.462L41.2542 112.533L41.3859 112.604L41.5187 112.673L41.6527 112.741L41.7867 112.807L41.9217 112.872L42.0579 112.937L42.1942 112.999L42.3317 113.061L42.4702 113.121L42.6099 113.18L42.7484 113.237L42.8892 113.294L43.0312 113.349L43.1732 113.402L43.3164 113.455L43.4607 113.506L43.6049 113.556L43.7504 113.603L43.8972 113.649L44.0439 113.694L44.1917 113.738L44.2494 113.755L44.5774 112.622V112.624ZM37.1782 107.617L37.1297 107.557L37.0442 107.451L36.9587 107.345L36.8754 107.237L36.7922 107.129L36.7102 107.02L36.6294 106.912L36.5487 106.802L36.4689 106.691L36.3904 106.581L36.3119 106.47L36.2357 106.358L36.1594 106.246L36.0844 106.133L36.0104 106.019L35.9364 105.905L35.8649 105.791L35.7934 105.675L35.7229 105.56L35.6537 105.444L35.5844 105.328L35.5162 105.211L35.4492 105.094L35.3834 104.977L35.3187 104.859L35.2539 104.74L35.1904 104.623L35.1282 104.504L35.0659 104.385L35.0059 104.265L34.9459 104.146L34.8869 104.026L34.8292 103.904L34.7727 103.783L34.7172 103.662L34.6629 103.541L34.6087 103.419L34.5557 103.298L34.5037 103.176L34.4529 103.054L34.4032 102.932L34.3534 102.809L34.3129 102.707L33.2149 103.133L33.2589 103.245L33.3109 103.375L33.3639 103.506L33.4182 103.636L33.4737 103.765L33.5292 103.895L33.5869 104.025L33.6459 104.154L33.7059 104.284L33.7659 104.412L33.8272 104.54L33.8894 104.668L33.9529 104.797L34.0177 104.924L34.0824 105.051L34.1482 105.176L34.2164 105.302L34.2847 105.427L34.3539 105.553L34.4244 105.677L34.4959 105.802L34.5687 105.926L34.6414 106.049L34.7164 106.173L34.7914 106.295L34.8664 106.416L34.9437 106.539L35.0209 106.66L35.0994 106.781L35.1792 106.901L35.2599 107.02L35.3419 107.139L35.4252 107.258L35.5084 107.376L35.5939 107.494L35.6794 107.611L35.7659 107.727L35.8537 107.843L35.9414 107.958L36.0304 108.072L36.1204 108.187L36.2117 108.301L36.2614 108.361L37.1759 107.617H37.1782ZM33.3794 99.417C33.0387 97.5465 32.9834 95.6608 33.3944 93.796L32.2432 93.542C31.7929 95.5315 31.8552 97.633 32.2202 99.6295L33.3794 99.417ZM34.5122 90.5963C35.3124 88.8978 36.5029 87.2638 37.6877 85.8148L36.7789 85.0643C35.5412 86.5595 34.2814 88.3228 33.4522 90.0815L34.5122 90.5963ZM40.0062 83.1958L40.0142 83.1878L40.1147 83.0815L40.2152 82.9753L40.3167 82.869L40.4194 82.7615L40.5222 82.654L40.6249 82.5465L40.7289 82.439L40.8339 82.3305L40.9389 82.222L41.0439 82.1135L41.1502 82.005L41.2577 81.8953L41.3652 81.7855L41.4737 81.6758L41.5822 81.566L41.6919 81.4553L41.8027 81.3433L41.9134 81.2313L42.0242 81.1205L42.1362 81.0085L42.2482 80.8965L42.3624 80.7833L42.4767 80.67L42.5909 80.5568L42.7064 80.4425L42.8219 80.3283L42.9384 80.214L43.0552 80.0985L43.1729 79.983L43.2907 79.8675L43.4097 79.751L43.5287 79.6345L43.6487 79.518L43.7687 79.4003L43.8899 79.2825L44.0112 79.1648L44.1337 79.0458L44.1417 79.0388L43.3194 78.1935L43.3114 78.2015L43.1889 78.3205L43.0664 78.4395L42.9452 78.5573L42.8239 78.6763L42.7039 78.7928L42.5839 78.9105L42.4649 79.027L42.3459 79.1435L42.2282 79.26L42.1104 79.3755L41.9927 79.491L41.8759 79.6065L41.7604 79.7208L41.6449 79.8363L41.5307 79.9505L41.4164 80.0638L41.3022 80.178L41.1902 80.2913L41.0782 80.4033L40.9662 80.5165L40.8554 80.6285L40.7447 80.7405L40.6349 80.8525L40.5252 80.9633L40.4167 81.074L40.3082 81.1848L40.1997 81.2955L40.0922 81.4053L39.9859 81.515L39.8797 81.6248L39.7747 81.7345L39.6697 81.8443L39.5657 81.9528L39.4629 82.0603L39.3589 82.1688L39.2562 82.2773L39.1547 82.3848L39.1467 82.394L40.0057 83.2013L40.0062 83.1958Z" fill="white"/>
</svg>
