<svg width="129" height="129" viewBox="0 0 129 129" fill="none" xmlns="http://www.w3.org/2000/svg">
<path d="M0.47998 64.678C0.47998 29.3255 29.144 0.667981 64.4988 0.677981C99.7555 0.688231 128.48 29.4218 128.48 64.6783C128.48 87.0973 116.953 106.824 99.5015 118.254C89.8145 112.356 78.4375 108.959 66.2672 108.959C53.5932 108.959 41.78 112.643 31.8392 118.999C31.4752 119.232 31.01 119.241 30.6435 119.012C12.5313 107.709 0.47998 87.6008 0.47998 64.678Z" fill="#FFF2EC"/>
<path d="M121.019 70.1963C121.019 98.1543 98.3546 120.818 70.3969 120.818C42.4391 120.818 19.7744 98.1543 19.7744 70.1963C19.7744 42.2383 42.4389 19.574 70.3969 19.574C98.3549 19.574 121.019 42.2383 121.019 70.1963Z" fill="#FFE5D9"/>
<path d="M108.523 61.928H19.9375C15.412 61.928 11.73 58.2463 11.73 53.7208V50.678C11.73 49.9878 12.2895 49.428 12.98 49.428C13.6705 49.428 14.23 49.9878 14.23 50.678V53.7205C14.23 56.8678 16.7903 59.428 19.9375 59.428H108.523C111.67 59.428 114.23 56.8678 114.23 53.7205V50.678C114.23 49.9878 114.79 49.428 115.48 49.428C116.17 49.428 116.73 49.9878 116.73 50.678V53.7205C116.73 58.2463 113.048 61.928 108.523 61.928ZM65.73 32.514V30.067C65.73 26.1845 67.6522 22.4415 70.872 20.0543C73.7257 17.9383 75.349 14.5545 75.214 11.0028C75.0025 5.42929 70.4707 0.89754 64.897 0.68579C61.94 0.57354 59.1525 1.63754 57.0303 3.68054C54.907 5.72479 53.7375 8.47329 53.7375 11.42C53.7375 12.1103 54.297 12.67 54.9875 12.67C55.678 12.67 56.2375 12.1103 56.2375 11.42C56.2375 9.15929 57.1348 7.05029 58.764 5.48154C60.3923 3.91379 62.5405 3.09779 64.802 3.18404C69.0772 3.34629 72.5532 6.82229 72.7155 11.0975C72.819 13.824 71.5732 16.4215 69.3827 18.0458C65.5302 20.9025 63.23 25.3965 63.23 30.0673V32.5143C63.23 33.2045 63.7895 33.7643 64.48 33.7643C65.1705 33.7643 65.73 33.2043 65.73 32.514Z" fill="#9D8189"/>
<path d="M71.652 38.928C71.652 41.8405 69.291 44.2015 66.3785 44.2015H63.035C57.5558 44.2015 52.4092 46.8318 49.1997 51.2725L47.9867 52.951C47.171 54.0798 45.863 54.7483 44.4702 54.7483H13.4483C11.809 54.7483 10.48 53.4193 10.48 51.78C10.48 50.3283 11.53 49.0898 12.962 48.8518L38.9142 44.5428C40.214 44.327 41.3452 43.5323 41.989 42.3828C45.0082 36.9925 50.7042 33.6545 56.8822 33.6545H62.3703V31.6505C62.3703 30.4273 63.3618 29.4358 64.585 29.4358C65.8083 29.4358 66.7997 30.4275 66.7997 31.6505V33.6713C69.5155 33.8863 71.652 36.1578 71.652 38.928Z" fill="#F0AEBB"/>
<path d="M118.48 51.78C118.48 53.4195 117.151 54.7483 115.512 54.7483H84.4899C83.0971 54.7483 81.7891 54.0798 80.9734 52.951L79.7604 51.2725C76.5509 46.8318 71.4044 44.2015 65.9251 44.2015H62.5816C59.6691 44.2015 57.3081 41.8405 57.3081 38.928C57.3081 36.0155 59.6691 33.6545 62.5816 33.6545H72.0776C78.2556 33.6545 83.9516 36.9928 86.9709 42.3828C87.6146 43.5323 88.7459 44.327 90.0456 44.5428L115.998 48.8518C117.43 49.0898 118.48 50.3285 118.48 51.78Z" fill="#FFCAD4"/>
<path d="M104.439 92.0264L98.3757 118.975C88.5469 125.124 76.9287 128.678 64.4802 128.678C58.4997 128.678 52.7109 127.858 47.2202 126.323C37.3509 123.566 29.8184 115.569 27.5689 105.572L24.5212 92.0264C23.5752 87.8226 25.0627 83.4428 28.3729 80.6843C30.6849 78.7575 32.1482 76 32.4477 73.0055L35.2569 44.9123C35.3984 43.4978 36.1659 42.221 37.3487 41.4325L40.8492 39.0989C41.8032 38.4629 43.0889 39.0888 43.1769 40.2318L44.9939 63.8521C45.2969 67.7899 47.6019 71.2953 51.0972 73.134L51.1969 73.1866C59.5119 77.5629 69.4492 77.5629 77.7642 73.1866C81.3134 71.3186 83.6309 67.7338 83.8772 63.7305L85.3202 40.28C85.3912 39.1255 86.6869 38.4826 87.6494 39.1241L91.1462 41.4553C92.3094 42.2308 93.0719 43.4794 93.2307 44.8684L96.4579 73.1064C96.7932 76.0409 98.2464 78.733 100.515 80.6238L100.588 80.6843C103.898 83.4428 105.385 87.8226 104.439 92.0264Z" fill="white"/>
<path d="M60.48 116.928C60.48 121.164 59.0755 125.071 56.7068 128.211C53.6358 127.839 50.6315 127.249 47.7105 126.458C47.1858 126.316 46.9943 124.37 46.4748 124.215C41.216 122.645 37.0103 121.115 32.4145 118.325C32.17 118.177 30.8268 119.127 30.5843 118.975L27.4023 104.833C30.8418 100.763 35.984 98.178 41.73 98.178C52.0853 98.178 60.48 106.573 60.48 116.928ZM40.48 81.928C40.48 85.3798 43.2783 88.178 46.73 88.178C50.1818 88.178 52.98 85.3798 52.98 81.928C52.98 78.4763 50.1818 75.678 46.73 75.678C43.2783 75.678 40.48 78.4763 40.48 81.928Z" fill="#FFE5D9"/>
<path d="M52.9799 116.928C52.9799 120.943 50.8759 124.468 47.7104 126.458C41.6249 124.81 35.8019 122.281 30.5844 118.975C30.4552 118.293 30.4799 117.647 30.4799 116.928C30.4799 110.715 35.5167 105.678 41.7299 105.678C47.9432 105.678 52.9799 110.715 52.9799 116.928ZM55.4799 91.928C55.4799 98.1413 60.5167 103.178 66.7299 103.178C72.9432 103.178 77.9799 98.1413 77.9799 91.928C77.9799 85.7148 72.9432 80.678 66.7299 80.678C60.5167 80.678 55.4799 85.7148 55.4799 91.928Z" fill="#FFCAD4"/>
<path d="M41.7298 113.178C43.8008 113.178 45.4798 114.857 45.4798 116.928C45.4798 118.999 43.8008 120.678 41.7298 120.678C39.6588 120.678 37.9798 118.999 37.9798 116.928C37.9798 114.857 39.6588 113.178 41.7298 113.178ZM62.9798 91.9279C62.9798 93.9989 64.6588 95.6779 66.7298 95.6779C68.8008 95.6779 70.4798 93.9989 70.4798 91.9279C70.4798 89.8569 68.8008 88.1779 66.7298 88.1779C64.6588 88.1779 62.9798 89.8569 62.9798 91.9279ZM44.6465 81.9279C44.6465 83.0784 45.5793 84.0112 46.7298 84.0112C47.8803 84.0112 48.813 83.0784 48.813 81.9279C48.813 80.7774 47.8803 79.8447 46.7298 79.8447C45.5793 79.8447 44.6465 80.7774 44.6465 81.9279ZM70.3965 117.678C70.3965 118.828 71.3293 119.761 72.4798 119.761C73.6303 119.761 74.563 118.828 74.563 117.678C74.563 116.527 73.6303 115.595 72.4798 115.595C71.3293 115.595 70.3965 116.527 70.3965 117.678ZM34.9798 88.0947C36.1303 88.0947 37.063 89.0274 37.063 90.1779C37.063 91.3284 36.1303 92.2612 34.9798 92.2612C33.8293 92.2612 32.8965 91.3284 32.8965 90.1779C32.8965 89.0274 33.8293 88.0947 34.9798 88.0947Z" fill="#9D8189"/>
<path d="M91.444 118.04H88.9913C86.983 118.04 85.355 116.412 85.355 114.403V79.6204C85.355 77.6121 86.983 75.9841 88.9913 75.9841H91.444C93.4522 75.9841 95.0803 77.6121 95.0803 79.6204V114.403C95.0805 116.412 93.4525 118.04 91.444 118.04Z" fill="#19305C"/>
<path d="M109.73 118.04H89.8232V75.9839H109.73C111.801 75.9839 113.48 77.6629 113.48 79.7339V114.29C113.48 116.361 111.801 118.04 109.73 118.04Z" fill="#FFE5D9"/>
<path d="M100.668 45.6255V79.46C100.668 80.1503 100.108 80.71 99.4175 80.71C98.727 80.71 98.1675 80.1503 98.1675 79.46V45.6255C98.1675 44.9353 98.727 44.3755 99.4175 44.3755C100.108 44.3755 100.668 44.9353 100.668 45.6255Z" fill="#19305C"/>
<path d="M102.589 82.2092H96.2452C95.0772 82.2092 94.1304 81.2624 94.1304 80.0944C94.1304 78.9264 95.0772 77.9797 96.2452 77.9797H102.589C103.757 77.9797 104.704 78.9264 104.704 80.0944C104.704 81.2624 103.757 82.2092 102.589 82.2092Z" fill="#9D8189"/>
<path d="M92.2275 89.0416C92.2275 88.1656 92.9375 87.4556 93.8135 87.4556H105.867C106.743 87.4556 107.453 88.1656 107.453 89.0416C107.453 89.9176 106.743 90.6276 105.867 90.6276H93.8135C92.9375 90.6276 92.2275 89.9174 92.2275 89.0416ZM105.867 93.7996H93.8135C92.9375 93.7996 92.2275 94.5096 92.2275 95.3856C92.2275 96.2616 92.9375 96.9716 93.8135 96.9716H105.867C106.743 96.9716 107.453 96.2616 107.453 95.3856C107.453 94.5096 106.743 93.7996 105.867 93.7996Z" fill="#FF956A"/>
<path d="M115.57 112.835C114.329 113.498 113.882 115.055 114.584 116.275C115.072 117.123 114.438 118.178 113.46 118.145C112.054 118.099 110.888 119.225 110.886 120.631C110.884 121.61 109.808 122.207 108.977 121.689C107.783 120.946 106.211 121.338 105.505 122.555C105.014 123.402 103.784 123.381 103.323 122.517C102.66 121.277 101.103 120.83 99.8833 121.531C99.0348 122.019 97.98 121.386 98.0125 120.407C98.059 119.002 96.9333 117.836 95.5268 117.834C94.548 117.832 93.9513 116.756 94.4685 115.925C95.2115 114.731 94.8195 113.158 93.6025 112.453C92.7558 111.962 92.777 110.732 93.6405 110.271C94.8813 109.608 95.3278 108.051 94.6265 106.831C94.1385 105.983 94.772 104.928 95.7505 104.96C97.1563 105.007 98.3218 103.881 98.3243 102.475C98.326 101.496 99.402 100.899 100.233 101.416C101.427 102.159 103 101.767 103.705 100.55C104.196 99.7038 105.426 99.7251 105.887 100.588C106.55 101.829 108.107 102.276 109.327 101.574C110.175 101.086 111.23 101.72 111.198 102.698C111.151 104.104 112.277 105.27 113.683 105.272C114.662 105.274 115.259 106.35 114.742 107.181C113.999 108.375 114.391 109.947 115.608 110.653C116.454 111.144 116.433 112.374 115.57 112.835Z" fill="#FFCAD4"/>
<path d="M115.57 112.835C114.329 113.498 113.882 115.055 114.584 116.275C115.072 117.123 114.438 118.178 113.46 118.145C112.054 118.099 110.888 119.225 110.886 120.631C110.884 121.61 109.808 122.207 108.977 121.689C108.317 121.278 107.54 121.215 106.859 121.446C104.685 117.549 103.446 113.059 103.446 108.279C103.446 105.365 103.907 102.559 104.759 99.928C105.202 99.919 105.648 100.141 105.887 100.589C106.55 101.829 108.107 102.276 109.327 101.575C110.175 101.087 111.23 101.72 111.198 102.699C111.151 104.104 112.277 105.27 113.683 105.272C114.662 105.274 115.259 106.35 114.742 107.181C113.999 108.375 114.391 109.948 115.608 110.653C116.454 111.144 116.433 112.374 115.57 112.835Z" fill="#FFF04A"/>
</svg>
